<svg class="main-svg" xmlns="http://www.w3.org/2000/svg" xmlns:xlink="http://www.w3.org/1999/xlink" width="1550" height="700" style="" viewBox="0 0 1550 700"><rect x="0" y="0" width="1550" height="700" style="fill: rgb(255, 255, 255); fill-opacity: 1;"/><defs id="defs-41feb7"><g class="clips"><clipPath id="clip41feb7xyplot" class="plotclip"><rect width="1358" height="470"/></clipPath><clipPath class="axesclip" id="clip41feb7x"><rect x="104" y="0" width="1358" height="700"/></clipPath><clipPath class="axesclip" id="clip41feb7y"><rect x="0" y="144" width="1550" height="470"/></clipPath><clipPath class="axesclip" id="clip41feb7xy"><rect x="104" y="144" width="1358" height="470"/></clipPath></g><g class="gradients"/><g class="patterns"/></defs><g class="bglayer"/><g class="layer-below"><g class="imagelayer"/><g class="shapelayer"/></g><g class="cartesianlayer"><g class="subplot xy"><g class="layer-subplot"><g class="shapelayer"/><g class="imagelayer"/></g><g class="minor-gridlayer"><g class="x"/><g class="y"/></g><g class="gridlayer"><g class="x"/><g class="y"><path class="ygrid crisp" transform="translate(0,560.8)" d="M104,0h1358" style="stroke: rgb(232, 235, 239); stroke-opacity: 1; stroke-width: 1px;"/><path class="ygrid crisp" transform="translate(0,480.54)" d="M104,0h1358" style="stroke: rgb(232, 235, 239); stroke-opacity: 1; stroke-width: 1px;"/><path class="ygrid crisp" transform="translate(0,400.27)" d="M104,0h1358" style="stroke: rgb(232, 235, 239); stroke-opacity: 1; stroke-width: 1px;"/><path class="ygrid crisp" transform="translate(0,320)" d="M104,0h1358" style="stroke: rgb(232, 235, 239); stroke-opacity: 1; stroke-width: 1px;"/><path class="ygrid crisp" transform="translate(0,239.74)" d="M104,0h1358" style="stroke: rgb(232, 235, 239); stroke-opacity: 1; stroke-width: 1px;"/><path class="ygrid crisp" transform="translate(0,159.47)" d="M104,0h1358" style="stroke: rgb(232, 235, 239); stroke-opacity: 1; stroke-width: 1px;"/></g></g><g class="zerolinelayer"/><g class="layer-between"><g class="shapelayer"/><g class="imagelayer"/></g><path class="xlines-below"/><path class="ylines-below"/><g class="overlines-below"/><g class="xaxislayer-below"/><g class="yaxislayer-below"/><g class="overaxes-below"/><g class="overplot"><g class="xy" transform="translate(104,144)" clip-path="url(#clip41feb7xyplot)"><g class="scatterlayer mlayer"><g class="trace scatter trace991304" style="stroke-miterlimit: 2; opacity: 1;"><g class="fills"/><g class="errorbars"/><g class="lines"><path class="js-line" d="M11.16,219.35L18.6,200.08L22.32,212.12L26.04,225.77L29.76,245.03L40.93,219.35L44.65,241.02L48.37,191.26L52.09,251.45L55.81,250.65L66.97,241.82L70.69,246.64L74.41,218.55L78.13,210.52L81.85,151.93L93.01,208.11L96.73,211.32L100.45,190.45L104.18,147.11L107.9,233.8L119.06,253.06L122.78,177.61L126.5,176L130.22,241.82L133.94,217.74L145.1,187.24L148.82,188.04L152.54,156.74L156.26,198.48L159.98,217.74L163.7,204.9L200.91,135.07L204.63,142.29L208.35,178.41L212.07,162.36L215.79,168.78L226.95,164.77L230.67,205.7L234.39,201.69L238.12,193.66L241.84,167.98L253,139.89L256.72,170.39L260.44,163.16L264.16,164.77L267.88,181.62L279.04,166.37L282.76,164.77L286.48,242.63L290.2,235.4L293.92,207.31L305.08,184.03L308.81,199.28L312.53,193.66L316.25,216.14L319.97,205.7L331.13,227.37L334.85,261.09L338.57,216.14L342.29,192.06L346.01,204.9L360.89,196.07L364.61,222.56L368.33,225.77L372.05,241.02L383.22,237.81L386.94,228.18L390.66,221.76L394.38,226.57L398.1,253.06L409.26,181.62L412.98,209.72L416.7,184.03L420.42,198.48L424.14,219.35L435.3,196.07L439.02,209.72L442.75,228.18L446.47,266.7L468.79,190.45L472.51,223.36L476.23,227.37L479.95,227.37L487.39,246.64L491.11,246.64L494.83,181.62L498.55,304.43L502.27,281.15L513.44,241.82L517.16,255.47L520.88,306.84L524.6,277.14L528.32,261.89L539.48,253.86L543.2,268.31L550.64,213.73L554.36,256.27L565.52,237.01L569.24,269.11L572.96,266.7L576.68,314.86L580.41,279.55L591.57,314.86L595.29,275.53L599.01,301.22L602.73,243.43L606.45,233.8L617.61,216.94L621.33,241.02L628.77,277.94L643.65,269.92L647.38,291.59L651.1,276.34L654.82,405.56L658.54,296.4L669.7,272.32L673.42,257.07L677.14,279.55L680.86,275.53L684.58,251.45L695.74,242.63L699.46,265.1L703.18,279.55L706.9,288.38L710.62,279.55L721.79,266.7L725.51,253.06L729.23,255.47L732.95,294L736.67,285.97L747.83,253.06L751.55,310.85L755.27,257.07L758.99,266.7L762.71,302.82L773.87,270.72L777.59,276.34L781.32,320.48L785.04,279.55L788.76,270.72L799.92,277.94L803.64,224.16L807.36,277.94L811.08,276.34L814.8,281.96L825.96,280.35L829.68,277.94L833.4,270.72L837.12,303.63L840.84,304.43L852.01,265.9L855.73,302.82L859.45,278.74L863.17,277.14L866.89,290.78L878.05,285.17L881.77,298.01L885.49,291.59L889.21,249.85L892.93,266.7L904.09,261.09L907.81,266.7L911.53,277.94L915.25,260.28L918.98,253.86L930.14,191.26L933.86,208.91L937.58,263.49L941.3,295.6L945.02,301.22L956.18,334.13L959.9,322.09L963.62,256.27" style="vector-effect: none; fill: none; stroke: rgb(255, 0, 0); stroke-opacity: 1; stroke-width: 5px; opacity: 1;"/></g><g class="points"/><g class="text"/></g><g class="trace scatter trace48c7be" style="stroke-miterlimit: 2; opacity: 1;"><g class="fills"/><g class="errorbars"/><g class="lines"><path class="js-line" d="M3.72,336.54L7.44,410.38L18.6,351.79L22.32,371.05L26.04,315.67L29.76,314.06L33.48,314.86L44.65,318.07L48.37,292.39L52.09,307.64L55.81,298.81L59.53,314.06L70.69,311.65L74.41,304.43L78.13,312.46L81.85,333.33L85.57,328.51L133.94,290.78L137.66,280.35L141.38,328.51L148.82,306.04L152.54,306.84L156.26,272.32L159.98,312.46L163.7,248.24L174.87,320.48L178.59,303.63L182.31,314.86L186.03,293.19L189.75,312.46L200.91,318.07L204.63,340.55L208.35,354.19L212.07,370.25L215.79,363.02L230.67,363.83L234.39,396.74L238.12,430.45L241.84,392.72L245.56,395.13L256.72,388.71L260.44,359.01L264.16,350.18L267.88,367.84L271.6,334.93L282.76,378.27L286.48,344.56L290.2,369.44L293.92,355.8L297.64,371.05L308.81,342.15L312.53,367.84L316.25,362.22L319.97,350.18L323.69,379.08L334.85,379.88L338.57,370.25L342.29,350.98L346.01,438.47L360.89,446.5L364.61,368.64L368.33,424.83L372.05,206.51L375.78,318.07L386.94,294L390.66,333.33L394.38,343.76L398.1,318.88L401.82,331.72L412.98,324.5L416.7,366.23L420.42,334.93L424.14,342.15L427.86,304.43L435.3,291.59L439.02,295.6L442.75,293.19L446.47,290.78L468.79,259.48L472.51,289.98L476.23,310.85L491.11,277.94L494.83,330.92L498.55,280.35L502.27,325.3L505.99,318.07L517.16,281.96L520.88,308.44L524.6,322.09L528.32,306.84L532.04,330.92L543.2,358.21L546.92,333.33L550.64,433.66L554.36,334.93L558.08,425.63L572.96,346.97L576.68,343.76L580.41,349.38L584.13,316.47L595.29,336.54L599.01,316.47L602.73,334.93L606.45,355.8L610.17,289.98L625.05,333.33L628.77,299.61L636.21,338.94L647.38,333.33L651.1,347.77L654.82,327.71L658.54,306.84L662.26,330.11L673.42,337.34L677.14,326.9L680.86,322.09L684.58,342.96L688.3,317.27L699.46,314.06L703.18,312.46L706.9,315.67L710.62,262.69L714.35,306.84L725.51,315.67L729.23,302.82L732.95,304.43L736.67,285.97L740.39,274.73L751.55,265.1L755.27,261.89L758.99,285.97L766.43,240.22L777.59,339.75L781.32,298.01L785.04,281.15L788.76,324.5L792.48,310.05L803.64,289.98L807.36,277.14L811.08,298.01L814.8,308.44L818.52,298.81L829.68,280.35L833.4,299.61L837.12,302.82L840.84,322.09L844.56,277.14L855.73,306.84L859.45,290.78L863.17,338.94L866.89,298.81L870.61,334.93L881.77,284.36L885.49,318.07L889.21,330.92L892.93,285.97L896.65,314.86L907.81,310.85L911.53,302.82L915.25,306.84L918.98,312.46L922.7,280.35L933.86,320.48L937.58,345.37L941.3,326.1L945.02,345.37L948.74,342.96L959.9,318.07L963.62,327.71L967.34,342.15L971.06,363.02L974.78,342.15L985.95,330.92L989.67,354.19L993.39,341.35L1000.83,363.02L1008.27,370.25L1011.99,352.59L1015.71,384.7L1049.19,310.85L1052.92,362.22L1056.64,379.08L1064.08,363.02L1067.8,377.47L1071.52,373.46L1075.24,387.91L1078.96,407.97L1090.12,377.47L1093.84,351.79L1097.56,371.05L1101.28,357.41L1105,350.98L1116.16,370.25L1119.88,363.83L1123.61,344.56L1127.33,367.04L1131.05,382.29L1142.21,326.9L1145.93,359.81L1149.65,346.97L1153.37,314.86L1157.09,338.94L1168.25,328.51L1171.97,328.51L1175.69,316.47L1179.41,314.06L1183.13,330.11L1194.3,292.39L1198.02,304.43L1201.74,273.13L1205.46,286.77L1209.18,297.21L1220.34,280.35L1224.06,308.44L1227.78,310.85L1235.22,263.49L1246.38,309.25L1250.1,274.73L1253.82,294L1257.55,290.78L1261.27,275.53L1272.43,277.94L1276.15,287.57L1279.87,249.85L1283.59,281.15L1287.31,262.69L1298.47,268.31L1302.19,286.77L1305.91,248.24L1309.63,274.73L1313.35,279.55L1324.52,266.7L1328.24,259.48L1331.96,232.99L1335.68,245.03L1339.4,220.15L1350.56,230.59L1354.28,216.14L1358,232.19" style="vector-effect: none; fill: none; stroke: rgb(0, 0, 255); stroke-opacity: 1; stroke-width: 4px; opacity: 1;"/></g><g class="points"/><g class="text"/></g><g class="trace scatter trace662f3d" style="stroke-miterlimit: 2; opacity: 1;"><g class="fills"/><g class="errorbars"/><g class="lines"><path class="js-line" d="M3.72,203.3L7.44,216.94L11.16,204.1L14.88,223.36L26.04,274.73L29.76,249.05L33.48,245.84L37.21,212.12L40.93,215.33L52.09,223.36L55.81,235.4L59.53,273.93L63.25,264.3L66.97,286.77L78.13,309.25L81.85,292.39L85.57,284.36L89.29,275.53L93.01,298.81L104.18,298.01L107.9,296.4L111.62,289.18L115.34,308.44L119.06,314.06L126.5,276.34L130.22,280.35L133.94,294.8L137.66,305.23L141.38,309.25L178.59,300.42L182.31,277.94L186.03,277.94L189.75,293.19L193.47,281.15L197.19,297.21L208.35,322.09L212.07,294.8L215.79,337.34L219.51,334.13L223.23,339.75L234.39,346.17L238.12,347.77L241.84,331.72L245.56,327.71L249.28,299.61L260.44,325.3L264.16,305.23L267.88,301.22L271.6,273.13L275.32,239.41L286.48,188.85L290.2,283.56L293.92,267.51L301.36,360.62L312.53,310.05L316.25,272.32L319.97,300.42L323.69,278.74L327.41,282.76L338.57,279.55L342.29,303.63L346.01,302.82L360.89,286.77L364.61,238.61L368.33,256.27L379.5,326.9L390.66,283.56L394.38,303.63L398.1,291.59L401.82,291.59L405.54,274.73L416.7,288.38L420.42,296.4L424.14,298.81L427.86,308.44L431.58,278.74L439.02,278.74L442.75,273.93L446.47,302.02L468.79,289.98L472.51,277.94L476.23,296.4L479.95,300.42L483.67,307.64L487.39,294.8L494.83,282.76L498.55,303.63L505.99,286.77L509.72,293.19L520.88,268.31L524.6,299.61L528.32,292.39L532.04,302.02L535.76,304.43L546.92,332.52L550.64,300.42L554.36,326.9L558.08,319.68L561.8,387.1L572.96,383.09L576.68,376.67L587.85,291.59L602.73,404.76L606.45,311.65L610.17,368.64L613.89,366.23L625.05,387.1L628.77,336.54L632.49,330.92L636.21,338.94L639.93,379.88L651.1,364.63L654.82,329.31L658.54,395.13L662.26,383.09L665.98,368.64L677.14,378.27L680.86,346.97L684.58,374.26L688.3,379.88L692.02,395.93L703.18,363.83L706.9,342.15L710.62,350.18L714.35,334.93L729.23,363.83L732.95,341.35L736.67,339.75L740.39,350.98L744.11,351.79L755.27,346.17L758.99,370.25L762.71,338.14L766.43,402.35L770.15,346.97L781.32,375.87L785.04,403.16L788.76,383.09L792.48,380.68L796.2,359.81L807.36,363.83L811.08,371.05L814.8,365.43L818.52,342.96L822.24,343.76L833.4,352.59L837.12,342.96L840.84,363.83L844.56,334.93L848.28,342.15L859.45,337.34L863.17,333.33L866.89,319.68L870.61,342.96L874.33,314.86L885.49,339.75L889.21,325.3L892.93,313.26L896.65,335.73L900.37,341.35L911.53,354.19L915.25,339.75L918.98,329.31L922.7,300.42L926.42,293.19L937.58,309.25L941.3,311.65L945.02,300.42L948.74,294L952.46,302.82L956.18,302.82L971.06,174.4L974.78,219.35L978.5,265.9L989.67,350.98L993.39,269.92L997.11,273.93L1000.83,290.78L1004.55,294.8L1011.99,177.61L1015.71,214.53L1045.47,330.92L1049.19,208.11L1052.92,312.46L1056.64,300.42L1060.36,224.16L1067.8,300.42L1071.52,276.34L1075.24,388.71L1078.96,336.54L1082.68,257.88L1093.84,364.63L1097.56,280.35L1101.28,336.54L1105,330.11L1108.72,352.59L1119.88,332.52L1123.61,349.38L1127.33,354.19L1131.05,342.15L1134.77,344.56L1145.93,346.17L1149.65,286.77L1153.37,245.03L1157.09,240.22L1160.81,224.97L1171.97,256.27L1175.69,286.77L1179.41,249.05L1183.13,257.07L1186.85,228.18L1198.02,263.49L1201.74,228.98L1205.46,206.51L1209.18,256.27L1212.9,309.25L1224.06,237.81L1227.78,265.9L1231.5,266.7L1235.22,251.45L1238.94,255.47L1250.1,255.47L1253.82,219.35L1257.55,291.59L1261.27,242.63L1264.99,204.1L1276.15,298.81L1279.87,303.63L1283.59,228.98L1287.31,279.55L1291.03,295.6L1302.19,268.31L1305.91,278.74L1309.63,358.21L1313.35,336.54L1317.07,306.84L1328.24,312.46L1331.96,285.97L1335.68,282.76L1339.4,304.43L1343.12,286.77L1354.28,293.19L1358,317.27" style="vector-effect: none; fill: none; stroke: rgb(0, 128, 0); stroke-opacity: 1; stroke-width: 4px; opacity: 1;"/></g><g class="points"/><g class="text"/></g><g class="trace scatter tracee42a43" style="stroke-miterlimit: 2; opacity: 1;"><g class="fills"/><g class="errorbars"/><g class="lines"><path class="js-line" d="M7.44,78.88L11.16,79.69L14.88,91.73L18.6,105.37L29.76,98.15L33.48,94.13L37.21,70.86L40.93,102.16L44.65,91.73L55.81,91.73L59.53,47.58L63.25,71.66L66.97,104.57L100.45,75.67L104.18,107.78L107.9,102.16L111.62,109.38L115.34,119.82L119.06,170.39L122.78,172.79L133.94,171.19L137.66,171.19L141.38,168.78L145.1,152.73L148.82,171.99L159.98,159.15L163.7,152.73L167.42,166.37L171.15,165.57L174.87,176.81L186.03,174.4L189.75,179.22L193.47,190.45L197.19,182.43L200.91,202.49L212.07,212.12L215.79,198.48L223.23,192.86L226.95,194.47L230.67,202.49L241.84,220.15L245.56,205.7L249.28,226.57L253,226.57L256.72,241.82L267.88,228.18L271.6,220.95L275.32,215.33L279.04,264.3L282.76,204.1L293.92,210.52L297.64,208.91L301.36,215.33L305.08,219.35L308.81,212.12L319.97,186.44L323.69,197.68L327.41,206.51L331.13,192.86L334.85,184.03L346.01,192.06L349.73,223.36L357.17,228.18L360.89,229.78L372.05,222.56L375.78,221.76L379.5,228.18L383.22,237.01L386.94,224.97L398.1,188.04L401.82,213.73L405.54,197.68L409.26,207.31L420.42,223.36L424.14,202.49L427.86,154.33L431.58,190.45L435.3,208.11L439.02,189.65L461.35,196.87L465.07,210.52L468.79,183.23L476.23,195.27L479.95,183.23L483.67,129.45L487.39,102.96L491.11,132.66L502.27,100.56L505.99,107.78L509.72,99.75L513.44,110.99L517.16,129.45L528.32,140.69L532.04,150.32L535.76,171.99L539.48,166.37L543.2,155.14L554.36,146.31L558.08,154.33L561.8,154.33L565.52,151.93L569.24,143.1L580.41,145.5L584.13,159.95L587.85,110.19L591.57,128.65L595.29,139.08L606.45,159.95L610.17,139.08L613.89,111.79L617.61,127.04L621.33,121.42L632.49,123.83L636.21,126.24L639.93,122.23L654.82,120.62L658.54,155.14L662.26,120.62L665.98,135.87L669.7,131.86L673.42,104.57L684.58,114.2L688.3,121.42L692.02,112.59L695.74,77.28L699.46,76.48L710.62,85.3L714.35,76.48L718.07,74.87L721.79,65.24L725.51,58.82L736.67,90.12L740.39,70.05L744.11,69.25L747.83,66.04L751.55,84.5L762.71,82.9L766.43,79.69L770.15,78.88L773.87,77.28L777.59,83.7L788.76,62.83L792.48,84.5L796.2,79.69L799.92,114.2L803.64,93.33L814.8,105.37L822.24,96.54L825.96,104.57L829.68,106.17L840.84,139.08L844.56,135.87L848.28,139.89L852.01,132.66L855.73,136.67L866.89,113.4L870.61,123.03L874.33,117.41L878.05,113.4L881.77,119.82L892.93,119.02L896.65,123.83L900.37,115L904.09,135.07L907.81,23.5L918.98,118.21L922.7,116.61L926.42,116.61L930.14,141.49L933.86,177.61L945.02,142.29L948.74,151.93L952.46,143.9L956.18,113.4L959.9,106.98L971.06,139.08L974.78,131.06L978.5,143.1L982.22,163.96L985.95,132.66L997.11,155.94L1000.83,166.37L1004.55,155.14L1008.27,148.71L1041.75,146.31L1045.47,146.31L1049.19,130.25L1052.92,148.71L1056.64,127.85L1060.36,113.4L1064.08,123.03L1075.24,147.91L1078.96,150.32L1082.68,163.16L1086.4,166.37L1090.12,188.04L1101.28,179.22L1105,163.16L1108.72,172.79L1112.44,198.48L1116.16,208.11L1127.33,222.56L1131.05,204.9L1134.77,208.11L1138.49,197.68L1142.21,186.44L1153.37,213.73L1157.09,201.69L1160.81,163.16L1164.53,198.48L1168.25,180.82L1179.41,186.44L1183.13,170.39L1186.85,183.23L1190.58,180.82L1194.3,212.12L1205.46,173.6L1209.18,215.33L1212.9,218.55L1220.34,204.1L1231.5,212.12L1235.22,209.72L1238.94,230.59L1242.66,216.94L1246.38,253.86L1257.55,253.06L1261.27,285.17L1264.99,244.23L1268.71,247.44L1272.43,235.4L1283.59,237.81L1287.31,216.14L1291.03,234.6L1294.75,228.98L1298.47,219.35L1309.63,216.14L1313.35,206.51L1317.07,200.08L1320.79,198.48L1324.52,180.02L1335.68,183.23L1339.4,193.66L1343.12,189.65L1346.84,201.69L1350.56,176" style="vector-effect: none; fill: none; stroke: rgb(148, 103, 189); stroke-opacity: 1; stroke-width: 3.2px; opacity: 1;"/></g><g class="points"/><g class="text"/></g><g class="trace scatter tracea4a4cf" style="stroke-miterlimit: 2; opacity: 1;"><g class="fills"/><g class="errorbars"/><g class="lines"><path class="js-line" d="M431.58,362.22L435.3,359.01L439.02,354.19L442.75,298.01L465.07,334.93L468.79,346.97L472.51,330.92L479.95,363.02L483.67,312.46L487.39,332.52L491.11,340.55L494.83,321.29L505.99,288.38L509.72,310.05L513.44,320.48L517.16,319.68L520.88,327.71L532.04,345.37L535.76,328.51L539.48,324.5L543.2,315.67L546.92,322.89L558.08,310.05L561.8,303.63L565.52,318.07L569.24,310.85L584.13,316.47L587.85,314.06L591.57,317.27L595.29,294.8L599.01,313.26L610.17,374.26L613.89,346.17L617.61,336.54L621.33,333.33L625.05,342.96L636.21,337.34L639.93,344.56L643.65,344.56L647.38,311.65L651.1,315.67L662.26,303.63L665.98,306.04L669.7,311.65L673.42,306.04L677.14,301.22L688.3,285.17L695.74,358.21L699.46,325.3L703.18,318.88L714.35,327.71L718.07,322.09L721.79,407.97L725.51,368.64L729.23,384.7L740.39,323.69L744.11,343.76L747.83,354.19L751.55,350.98L755.27,364.63L766.43,285.97L770.15,310.85L773.87,308.44L777.59,304.43L781.32,292.39L792.48,310.05L796.2,329.31L799.92,306.84L803.64,316.47L807.36,300.42L818.52,270.72L822.24,288.38L825.96,311.65L829.68,296.4L833.4,294.8L844.56,310.85L848.28,307.64L852.01,273.13L855.73,277.14L859.45,290.78L870.61,253.86L874.33,249.05L878.05,266.7L881.77,264.3L885.49,265.9L896.65,233.8L900.37,248.24L904.09,238.61L907.81,259.48L911.53,235.4L922.7,191.26L926.42,212.12L930.14,193.66L933.86,168.78L937.58,176.81L952.46,152.73L956.18,167.98L959.9,141.49L963.62,151.12L974.78,170.39L978.5,138.28L982.22,163.16L985.95,163.16L989.67,184.03L1000.83,176L1004.55,145.5L1008.27,198.48L1011.99,195.27L1015.71,222.56L1045.47,206.51L1049.19,214.53L1052.92,218.55L1056.64,238.61L1060.36,246.64L1064.08,234.6L1067.8,217.74L1078.96,208.11L1082.68,231.39L1086.4,214.53L1090.12,238.61L1093.84,201.69L1105,204.1L1108.72,191.26L1112.44,209.72L1116.16,205.7L1119.88,230.59L1131.05,228.18L1134.77,138.28L1138.49,157.54L1142.21,158.35L1145.93,155.94L1157.09,184.83L1160.81,151.93L1164.53,203.3L1168.25,202.49L1171.97,164.77L1183.13,163.96L1186.85,155.14L1190.58,162.36L1194.3,151.93L1198.02,156.74L1209.18,216.94L1212.9,108.58L1216.62,133.46L1220.34,129.45L1224.06,123.03L1235.22,118.21L1238.94,134.27L1242.66,126.24L1246.38,114.2L1250.1,124.63L1261.27,137.48L1264.99,115L1268.71,110.99L1272.43,119.02L1276.15,118.21L1287.31,150.32L1294.75,110.19L1298.47,142.29L1302.19,110.19L1313.35,163.16L1317.07,150.32L1320.79,133.46L1324.52,144.7L1328.24,137.48L1339.4,102.16L1343.12,78.08L1346.84,87.71L1350.56,101.36L1354.28,94.94" style="vector-effect: none; fill: none; stroke: rgb(23, 190, 207); stroke-opacity: 1; stroke-width: 3.2px; opacity: 1;"/></g><g class="points"/><g class="text"/></g></g></g></g><path class="xlines-above crisp" d="M0,0" style="fill: none;"/><path class="ylines-above crisp" d="M103.5,144V614" style="fill: none; stroke-width: 1px; stroke: rgb(170, 178, 187); stroke-opacity: 1;"/><g class="overlines-above"/><g class="xaxislayer-above"><g class="xtick"><text text-anchor="end" x="0" y="633" transform="translate(104,0) rotate(-45,0,624)" style="font-family: 'Open Sans', verdana, arial, sans-serif; font-size: 18px; fill: rgb(68, 68, 68); fill-opacity: 1; white-space: pre; opacity: 1;">01-01</text></g><g class="xtick"><text text-anchor="end" x="0" y="633" style="font-family: 'Open Sans', verdana, arial, sans-serif; font-size: 18px; fill: rgb(68, 68, 68); fill-opacity: 1; white-space: pre; opacity: 1;" transform="translate(219.34,0) rotate(-45,0,624)">02-01</text></g><g class="xtick"><text text-anchor="end" x="0" y="633" style="font-family: 'Open Sans', verdana, arial, sans-serif; font-size: 18px; fill: rgb(68, 68, 68); fill-opacity: 1; white-space: pre; opacity: 1;" transform="translate(327.23,0) rotate(-45,0,624)">03-01</text></g><g class="xtick"><text text-anchor="end" x="0" y="633" style="font-family: 'Open Sans', verdana, arial, sans-serif; font-size: 18px; fill: rgb(68, 68, 68); fill-opacity: 1; white-space: pre; opacity: 1;" transform="translate(442.57,0) rotate(-45,0,624)">04-01</text></g><g class="xtick"><text text-anchor="end" x="0" y="633" style="font-family: 'Open Sans', verdana, arial, sans-serif; font-size: 18px; fill: rgb(68, 68, 68); fill-opacity: 1; white-space: pre; opacity: 1;" transform="translate(554.19,0) rotate(-45,0,624)">05-01</text></g><g class="xtick"><text text-anchor="end" x="0" y="633" style="font-family: 'Open Sans', verdana, arial, sans-serif; font-size: 18px; fill: rgb(68, 68, 68); fill-opacity: 1; white-space: pre; opacity: 1;" transform="translate(669.52,0) rotate(-45,0,624)">06-01</text></g><g class="xtick"><text text-anchor="end" x="0" y="633" style="font-family: 'Open Sans', verdana, arial, sans-serif; font-size: 18px; fill: rgb(68, 68, 68); fill-opacity: 1; white-space: pre; opacity: 1;" transform="translate(781.14,0) rotate(-45,0,624)">07-01</text></g><g class="xtick"><text text-anchor="end" x="0" y="633" style="font-family: 'Open Sans', verdana, arial, sans-serif; font-size: 18px; fill: rgb(68, 68, 68); fill-opacity: 1; white-space: pre; opacity: 1;" transform="translate(896.48,0) rotate(-45,0,624)">08-01</text></g><g class="xtick"><text text-anchor="end" x="0" y="633" style="font-family: 'Open Sans', verdana, arial, sans-serif; font-size: 18px; fill: rgb(68, 68, 68); fill-opacity: 1; white-space: pre; opacity: 1;" transform="translate(1011.81,0) rotate(-45,0,624)">09-01</text></g><g class="xtick"><text text-anchor="end" x="0" y="633" style="font-family: 'Open Sans', verdana, arial, sans-serif; font-size: 18px; fill: rgb(68, 68, 68); fill-opacity: 1; white-space: pre; opacity: 1;" transform="translate(1123.4299999999998,0) rotate(-45,0,624)">10-01</text></g><g class="xtick"><text text-anchor="end" x="0" y="633" style="font-family: 'Open Sans', verdana, arial, sans-serif; font-size: 18px; fill: rgb(68, 68, 68); fill-opacity: 1; white-space: pre; opacity: 1;" transform="translate(1238.77,0) rotate(-45,0,624)">11-01</text></g><g class="xtick"><text text-anchor="end" x="0" y="633" style="font-family: 'Open Sans', verdana, arial, sans-serif; font-size: 18px; fill: rgb(68, 68, 68); fill-opacity: 1; white-space: pre; opacity: 1;" transform="translate(1350.38,0) rotate(-45,0,624)">12-01</text></g></g><g class="yaxislayer-above"><path class="ytick ticks crisp" d="M103,0h-5" transform="translate(0,560.8)" style="stroke: rgb(170, 178, 187); stroke-opacity: 1; stroke-width: 1px;"/><path class="ytick ticks crisp" d="M103,0h-5" transform="translate(0,480.54)" style="stroke: rgb(170, 178, 187); stroke-opacity: 1; stroke-width: 1px;"/><path class="ytick ticks crisp" d="M103,0h-5" transform="translate(0,400.27)" style="stroke: rgb(170, 178, 187); stroke-opacity: 1; stroke-width: 1px;"/><path class="ytick ticks crisp" d="M103,0h-5" transform="translate(0,320)" style="stroke: rgb(170, 178, 187); stroke-opacity: 1; stroke-width: 1px;"/><path class="ytick ticks crisp" d="M103,0h-5" transform="translate(0,239.74)" style="stroke: rgb(170, 178, 187); stroke-opacity: 1; stroke-width: 1px;"/><path class="ytick ticks crisp" d="M103,0h-5" transform="translate(0,159.47)" style="stroke: rgb(170, 178, 187); stroke-opacity: 1; stroke-width: 1px;"/><g class="ytick"><text text-anchor="end" x="93.4" y="8.049999999999999" transform="translate(0,560.8)" style="font-family: 'Open Sans', verdana, arial, sans-serif; font-size: 23px; fill: rgb(0, 0, 255); fill-opacity: 1; white-space: pre; opacity: 1;">−500</text></g><g class="ytick"><text text-anchor="end" x="93.4" y="8.049999999999999" style="font-family: 'Open Sans', verdana, arial, sans-serif; font-size: 23px; fill: rgb(0, 0, 255); fill-opacity: 1; white-space: pre; opacity: 1;" transform="translate(0,480.54)">0</text></g><g class="ytick"><text text-anchor="end" x="93.4" y="8.049999999999999" style="font-family: 'Open Sans', verdana, arial, sans-serif; font-size: 23px; fill: rgb(0, 0, 255); fill-opacity: 1; white-space: pre; opacity: 1;" transform="translate(0,400.27)">500</text></g><g class="ytick"><text text-anchor="end" x="93.4" y="8.049999999999999" style="font-family: 'Open Sans', verdana, arial, sans-serif; font-size: 23px; fill: rgb(0, 0, 255); fill-opacity: 1; white-space: pre; opacity: 1;" transform="translate(0,320)">1,000</text></g><g class="ytick"><text text-anchor="end" x="93.4" y="8.049999999999999" style="font-family: 'Open Sans', verdana, arial, sans-serif; font-size: 23px; fill: rgb(0, 0, 255); fill-opacity: 1; white-space: pre; opacity: 1;" transform="translate(0,239.74)">1,500</text></g><g class="ytick"><text text-anchor="end" x="93.4" y="8.049999999999999" style="font-family: 'Open Sans', verdana, arial, sans-serif; font-size: 23px; fill: rgb(0, 0, 255); fill-opacity: 1; white-space: pre; opacity: 1;" transform="translate(0,159.47)">2,000</text></g></g><g class="overaxes-above"/></g></g><g class="polarlayer"/><g class="smithlayer"/><g class="ternarylayer"/><g class="geolayer"/><g class="funnelarealayer"/><g class="pielayer"/><g class="iciclelayer"/><g class="treemaplayer"/><g class="sunburstlayer"/><g class="glimages"/><defs id="topdefs-41feb7"><g class="clips"/><clipPath id="legend41feb7"><rect width="505" height="42" x="0" y="0"/></clipPath></defs><g class="layer-above"><g class="imagelayer"/><g class="shapelayer"/></g><g class="infolayer"><g class="legend" pointer-events="all" transform="translate(530.5,69.99999999999996)"><rect class="bg" shape-rendering="crispEdges" width="505" height="42" x="0" y="0" style="stroke: rgb(68, 68, 68); stroke-opacity: 1; fill: rgb(255, 255, 255); fill-opacity: 1; stroke-width: 0px;"/><g class="scrollbox" transform="" clip-path="url(#legend41feb7)"><g class="groups"><g class="traces" transform="translate(0,20.8)" style="opacity: 1;"><text class="legendtext" text-anchor="start" x="40" y="8.58" style="font-family: 'Open Sans', verdana, arial, sans-serif; font-size: 22px; fill: rgb(68, 68, 68); fill-opacity: 1; white-space: pre;">2026</text><g class="layers" style="opacity: 1;"><g class="legendfill"/><g class="legendlines"><path class="js-line" d="M5,0h30" style="fill: none; stroke: rgb(255, 0, 0); stroke-opacity: 1; stroke-width: 5px;"/></g><g class="legendsymbols"><g class="legendpoints"/></g></g><rect class="legendtoggle" x="0" y="-15.8" width="98.453125" height="31.6" style="fill: rgb(0, 0, 0); fill-opacity: 0;"/></g><g class="traces" transform="translate(100.953125,20.8)" style="opacity: 1;"><text class="legendtext" text-anchor="start" x="40" y="8.58" style="font-family: 'Open Sans', verdana, arial, sans-serif; font-size: 22px; fill: rgb(68, 68, 68); fill-opacity: 1; white-space: pre;">2025</text><g class="layers" style="opacity: 1;"><g class="legendfill"/><g class="legendlines"><path class="js-line" d="M5,0h30" style="fill: none; stroke: rgb(0, 0, 255); stroke-opacity: 1; stroke-width: 4px;"/></g><g class="legendsymbols"><g class="legendpoints"/></g></g><rect class="legendtoggle" x="0" y="-15.8" width="98.453125" height="31.6" style="fill: rgb(0, 0, 0); fill-opacity: 0;"/></g><g class="traces" transform="translate(201.90625,20.8)" style="opacity: 1;"><text class="legendtext" text-anchor="start" x="40" y="8.58" style="font-family: 'Open Sans', verdana, arial, sans-serif; font-size: 22px; fill: rgb(68, 68, 68); fill-opacity: 1; white-space: pre;">2024</text><g class="layers" style="opacity: 1;"><g class="legendfill"/><g class="legendlines"><path class="js-line" d="M5,0h30" style="fill: none; stroke: rgb(0, 128, 0); stroke-opacity: 1; stroke-width: 4px;"/></g><g class="legendsymbols"><g class="legendpoints"/></g></g><rect class="legendtoggle" x="0" y="-15.8" width="98.453125" height="31.6" style="fill: rgb(0, 0, 0); fill-opacity: 0;"/></g><g class="traces" transform="translate(302.859375,20.8)" style="opacity: 1;"><text class="legendtext" text-anchor="start" x="40" y="8.58" style="font-family: 'Open Sans', verdana, arial, sans-serif; font-size: 22px; fill: rgb(68, 68, 68); fill-opacity: 1; white-space: pre;">2023</text><g class="layers" style="opacity: 1;"><g class="legendfill"/><g class="legendlines"><path class="js-line" d="M5,0h30" style="fill: none; stroke: rgb(148, 103, 189); stroke-opacity: 1; stroke-width: 3.2px;"/></g><g class="legendsymbols"><g class="legendpoints"/></g></g><rect class="legendtoggle" x="0" y="-15.8" width="98.453125" height="31.6" style="fill: rgb(0, 0, 0); fill-opacity: 0;"/></g><g class="traces" transform="translate(403.8125,20.8)" style="opacity: 1;"><text class="legendtext" text-anchor="start" x="40" y="8.58" style="font-family: 'Open Sans', verdana, arial, sans-serif; font-size: 22px; fill: rgb(68, 68, 68); fill-opacity: 1; white-space: pre;">2022</text><g class="layers" style="opacity: 1;"><g class="legendfill"/><g class="legendlines"><path class="js-line" d="M5,0h30" style="fill: none; stroke: rgb(23, 190, 207); stroke-opacity: 1; stroke-width: 3.2px;"/></g><g class="legendsymbols"><g class="legendpoints"/></g></g><rect class="legendtoggle" x="0" y="-15.8" width="98.453125" height="31.6" style="fill: rgb(0, 0, 0); fill-opacity: 0;"/></g></g></g><rect class="scrollbar" rx="20" ry="3" width="0" height="0" x="0" y="0" style="fill: rgb(128, 139, 164); fill-opacity: 1;"/></g><g class="g-gtitle"/><g class="g-xtitle"/><g class="g-ytitle"/><g class="annotation" data-index="0" style="opacity: 1;"><g class="annotation-text-g" transform="rotate(0,783,44)"><g class="cursor-pointer" transform="translate(654,29)"><rect class="bg" x="0.5" y="0.5" width="258" height="30" style="stroke-width: 1px; stroke: rgb(0, 0, 0); stroke-opacity: 0; fill: rgb(0, 0, 0); fill-opacity: 0;"/><text class="annotation-text" text-anchor="middle" x="129.5703125" y="24" style="font-family: 'Open Sans', verdana, arial, sans-serif; font-size: 22px; fill: rgb(23, 33, 43); fill-opacity: 1; white-space: pre;">全乳胶-泰混（深浅价差）</text></g></g></g><g class="annotation" data-index="1" style="opacity: 1;"><g class="annotation-text-g" transform="rotate(0,1373.5,127.5)"><g class="cursor-pointer" transform="translate(1285,116)"><rect class="bg" x="0.5" y="0.5" width="176" height="22" style="stroke-width: 1px; stroke: rgb(0, 0, 0); stroke-opacity: 0; fill: rgb(0, 0, 0); fill-opacity: 0;"/><text class="annotation-text" text-anchor="middle" x="88.578125" y="18" style="font-family: 'Open Sans', verdana, arial, sans-serif; font-size: 16px; fill: rgb(105, 117, 134); fill-opacity: 1; white-space: pre;">统计样本：2022–2025</text></g></g></g></g></svg>