<svg class="main-svg" xmlns="http://www.w3.org/2000/svg" xmlns:xlink="http://www.w3.org/1999/xlink" width="1550" height="700" viewBox="0 0 1550 700" style=""><rect x="0" y="0" width="1550" height="700" style="fill: rgb(255, 255, 255); fill-opacity: 1;"/><defs id="defs-2cf7fa"><g class="clips"><clipPath id="clip2cf7faxyplot" class="plotclip"><rect width="1342" height="518"/></clipPath><clipPath id="clip2cf7faxy2plot" class="plotclip"><rect width="1342" height="518"/></clipPath><clipPath class="axesclip" id="clip2cf7fax"><rect x="104" y="0" width="1342" height="700"/></clipPath><clipPath class="axesclip" id="clip2cf7fay"><rect x="0" y="106" width="1550" height="518"/></clipPath><clipPath class="axesclip" id="clip2cf7faxy"><rect x="104" y="106" width="1342" height="518"/></clipPath><clipPath class="axesclip" id="clip2cf7fay2"><rect x="0" y="106" width="1550" height="518"/></clipPath><clipPath class="axesclip" id="clip2cf7faxy2"><rect x="104" y="106" width="1342" height="518"/></clipPath></g><g class="gradients"/><g class="patterns"/></defs><g class="bglayer"/><g class="layer-below"><g class="imagelayer"/><g class="shapelayer"/></g><g class="cartesianlayer"><g class="subplot xy"><g class="layer-subplot"><g class="shapelayer"/><g class="imagelayer"/></g><g class="minor-gridlayer"><g class="x"/><g class="y"/><g class="y2"/></g><g class="gridlayer"><g class="x"/><g class="y"><path class="ygrid crisp" transform="translate(0,603.9)" d="M104,0h1342" style="stroke: rgb(232, 235, 239); stroke-opacity: 1; stroke-width: 1px;"/><path class="ygrid crisp" transform="translate(0,507.18)" d="M104,0h1342" style="stroke: rgb(232, 235, 239); stroke-opacity: 1; stroke-width: 1px;"/><path class="ygrid crisp" transform="translate(0,410.46)" d="M104,0h1342" style="stroke: rgb(232, 235, 239); stroke-opacity: 1; stroke-width: 1px;"/><path class="ygrid crisp" transform="translate(0,313.74)" d="M104,0h1342" style="stroke: rgb(232, 235, 239); stroke-opacity: 1; stroke-width: 1px;"/><path class="ygrid crisp" transform="translate(0,217.01999999999998)" d="M104,0h1342" style="stroke: rgb(232, 235, 239); stroke-opacity: 1; stroke-width: 1px;"/><path class="ygrid crisp" transform="translate(0,120.28999999999999)" d="M104,0h1342" style="stroke: rgb(232, 235, 239); stroke-opacity: 1; stroke-width: 1px;"/></g><g class="y2"/></g><g class="zerolinelayer"/><g class="layer-between"><g class="shapelayer"/><g class="imagelayer"/></g><path class="xlines-below"/><path class="ylines-below"/><g class="overlines-below"><path class="xy2-x"/><path class="xy2-y"/></g><g class="xaxislayer-below"/><g class="yaxislayer-below"/><g class="overaxes-below"><g class="xy2-x"/><g class="xy2-y"/></g><g class="overplot"><g class="xy" transform="translate(104,106)" clip-path="url(#clip2cf7faxyplot)"><g class="scatterlayer mlayer"><g class="trace scatter trace54e2d0" style="stroke-miterlimit: 2; opacity: 1;"><g class="fills"/><g class="errorbars"/><g class="lines"><path class="js-line" d="M0,200L5.14,196.13L10.28,203.87L15.43,209.67L20.57,184.52L25.71,176.79L30.85,174.85L41.13,182.59L46.28,213.54L56.56,240.62L61.7,240.62L66.84,203.87L71.98,223.21L77.13,223.21L82.27,213.54L87.41,227.08L92.55,341.21L102.84,308.33L107.98,331.54L113.12,314.13L118.26,283.18L123.4,259.97L128.54,256.1L133.69,263.84L138.83,283.18L143.97,318L149.11,265.77L154.25,248.36L159.39,236.75L164.54,256.1L169.68,290.92L174.82,354.75L179.96,389.57L185.1,383.77L190.25,339.28L195.39,352.82L200.53,310.26L205.67,331.54L210.81,331.54L215.95,321.87L221.1,327.67L226.24,472.76L231.38,480.49L241.66,348.95L246.8,331.54L251.95,352.82L257.09,364.43L262.23,377.97L267.37,406.98L272.51,426.33L277.66,484.36L282.8,492.1L287.94,412.79L293.08,414.72L298.22,430.2L303.36,465.02L308.51,472.76L313.65,484.36L318.79,480.49L323.93,445.67L329.07,436L334.21,399.25L339.36,376.03L349.64,358.62L354.78,374.1L359.92,389.57L365.07,397.31L370.21,387.64L375.35,316.07L380.49,385.71L385.63,412.79L390.77,406.98L395.92,424.39L401.06,459.21L406.2,395.38L411.34,389.57L416.48,377.97L421.62,288.98L426.77,312.2L431.91,325.74L437.05,333.48L442.19,341.21L447.33,376.03L452.48,422.46L457.62,414.72L462.76,347.02L467.9,316.07L473.04,352.82L478.18,356.69L483.33,379.9L487.73,352.82L493.61,405.05L498.75,310.26L503.89,360.56L509.03,316.07L514.18,333.48L519.32,327.67L524.46,350.89L529.6,337.34L534.74,327.67L539.89,335.41L545.03,318L550.17,321.87L555.31,343.15L560.45,391.51L570.74,318L575.88,306.39L581.02,323.8L586.16,356.69L591.3,343.15L596.44,259.97L601.59,221.28L606.73,242.56L611.87,238.69L617.01,227.08L622.15,244.49L627.3,294.79L637.58,366.36L642.72,383.77L647.86,314.13L653,368.3L658.15,366.36L663.29,356.69L668.43,285.11L673.57,306.39L678.71,360.56L683.85,348.95L689,279.31L694.14,296.72L699.28,325.74L704.42,321.87L709.56,331.54L714.7,374.1L719.85,341.21L724.99,271.57L730.13,225.15L735.27,138.1L740.41,141.97L745.56,118.75L755.84,176.79L760.98,232.89L766.12,201.93L771.26,213.54L776.41,182.59L781.55,169.05L786.69,111.02L791.83,78.13L796.97,95.54L802.11,83.93L807.26,82L812.4,37.51L817.54,41.38L822.68,25.9L827.82,70.39L832.97,89.74L843.25,143.9L848.39,200L853.53,227.08L858.67,178.72L868.96,80.06L874.1,70.39L879.24,112.95L884.38,136.16L889.52,174.85L894.67,184.52L899.81,219.34L904.95,227.08L910.09,234.82L915.23,95.54L925.52,130.36L930.66,170.98L935.8,169.05L940.94,248.36L946.08,201.93L951.23,170.98L956.37,95.54L961.51,196.13L966.65,217.41L971.79,292.85L976.93,339.28L982.08,352.82L987.22,323.8L992.36,341.21L997.5,333.48L1002.64,219.34L1007.79,227.08L1012.93,225.15L1018.07,229.02L1023.21,225.15L1028.35,225.15L1033.49,203.87L1038.64,136.16L1043.78,145.84L1048.92,111.02L1054.06,118.75L1059.2,153.57L1064.34,167.11L1069.49,128.43L1074.63,136.16L1084.91,151.64L1090.05,118.75L1095.2,170.98L1100.34,259.97L1105.48,329.61L1110.62,240.62L1115.76,265.77L1120.17,250.3L1126.05,263.84L1131.19,236.75L1136.33,161.31L1141.47,167.11L1146.61,215.48L1151.75,227.08L1156.9,261.9L1162.04,281.25L1167.18,281.25L1172.32,285.11L1177.46,370.23L1182.61,354.75L1187.75,350.89L1192.89,354.75L1198.03,393.44L1203.17,358.62L1208.31,362.49L1213.46,352.82L1223.74,258.03L1228.88,248.36L1234.02,246.43L1239.16,242.56L1244.31,259.97L1249.45,254.16L1254.59,238.69L1259.73,292.85L1264.87,269.64L1270.02,145.84L1275.16,159.38L1280.3,165.18L1285.44,176.79L1290.58,167.11L1295.72,151.64L1300.87,223.21L1306.01,234.82L1311.15,263.84L1316.29,186.46L1321.43,155.51L1326.57,145.84L1331.72,114.88L1336.86,155.51L1342,140.03" style="vector-effect: none; fill: none; stroke: rgb(0, 0, 255); stroke-opacity: 1; stroke-width: 5px; opacity: 1;"/></g><g class="points"/><g class="text"/></g></g></g><g class="xy2" transform="translate(104,106)" clip-path="url(#clip2cf7faxy2plot)"><g class="scatterlayer mlayer"><g class="trace scatter tracec99b13" style="stroke-miterlimit: 2; opacity: 1;"><g class="fills"/><g class="errorbars"/><g class="lines"><path class="js-line" d="M0,267.38L5.14,269.06L10.28,227.14L15.43,168.44L20.57,205.34L25.71,207.01L30.85,230.49L35.99,272.42L41.13,280.8L46.28,331.11L51.42,322.73L56.56,322.73L61.7,331.11L66.84,317.69L71.98,279.12L77.13,294.22L82.27,299.25L87.41,312.66L92.55,321.05L97.69,297.57L102.84,324.4L107.98,259L113.12,294.22L123.4,304.28L128.54,334.46L133.69,361.3L138.83,366.33L143.97,374.71L149.11,393.16L154.25,361.3L159.39,354.59L164.54,332.79L169.68,319.37L174.82,316.02L179.96,317.69L185.1,272.42L190.25,285.83L200.53,275.77L205.67,220.43L210.81,245.58L215.95,223.78L221.1,186.89L226.24,186.89L236.52,84.59L241.66,168.44L246.8,227.14L251.95,238.88L257.09,188.57L262.23,168.44L267.37,138.26L272.51,133.23L277.66,66.15L282.8,29.25L287.94,108.07L293.08,138.26L298.22,81.24L303.36,64.47L308.51,52.73L313.65,114.78L318.79,255.65L323.93,232.17L329.07,213.72L334.21,215.4L339.36,218.75L344.5,223.78L354.78,265.71L359.92,274.09L365.07,279.12L370.21,277.45L380.49,237.2L385.63,185.21L390.77,188.57L395.92,205.34L401.06,170.12L406.2,267.38L411.34,314.34L416.48,374.71L421.62,347.88L426.77,361.3L431.91,352.91L437.05,356.26L442.19,371.36L447.33,369.68L452.48,354.59L457.62,334.46L462.76,344.53L467.9,359.62L473.04,337.82L478.18,344.53L483.33,329.43L487.73,327.76L493.61,337.82L498.75,352.91L509.03,314.34L514.18,260.68L519.32,165.09L524.46,113.1L534.74,223.78L539.89,173.47L545.03,205.34L550.17,136.58L555.31,64.47L560.45,25.9L565.59,144.97L570.74,228.81L575.88,253.97L581.02,267.38L586.16,257.32L591.3,274.09L596.44,299.25L601.59,304.28L606.73,292.54L611.87,321.05L617.01,317.69L622.15,319.37L627.3,312.66L632.44,314.34L637.58,339.49L642.72,319.37L647.86,329.43L653,253.97L658.15,305.96L663.29,299.25L668.43,339.49L673.57,332.79L683.85,376.39L689,349.56L694.14,341.17L699.28,347.88L704.42,349.56L709.56,356.26L714.7,368L719.85,362.97L724.99,373.03L730.13,425.02L735.27,419.99L740.41,433.41L745.56,431.73L750.7,455.21L755.84,455.21L760.98,441.79L766.12,409.93L771.26,396.51L776.41,378.07L781.55,389.8L786.69,393.16L791.83,394.84L796.97,440.11L802.11,428.37L807.26,409.93L812.4,411.61L817.54,383.1L822.68,376.39L827.82,369.68L832.97,378.07L838.11,376.39L843.25,342.85L848.39,352.91L853.53,347.88L858.67,347.88L863.82,409.93L868.96,423.34L874.1,428.37L879.24,450.18L884.38,443.47L889.52,466.95L894.67,468.62L899.81,492.1L904.95,490.42L910.09,485.39L915.23,430.05L925.52,388.13L930.66,416.64L935.8,393.16L940.94,401.54L946.08,398.19L951.23,378.07L956.37,297.57L961.51,337.82L966.65,342.85L971.79,297.57L976.93,310.99L982.08,319.37L987.22,304.28L992.36,321.05L997.5,368L1002.64,359.62L1007.79,362.97L1012.93,369.68L1018.07,362.97L1023.21,381.42L1028.35,374.71L1033.49,384.77L1038.64,396.51L1043.78,381.42L1048.92,391.48L1054.06,378.07L1059.2,357.94L1064.34,366.33L1069.49,373.03L1074.63,389.8L1079.77,401.54L1084.91,388.13L1095.2,359.62L1100.34,341.17L1105.48,322.73L1110.62,371.36L1115.76,396.51L1120.17,383.1L1126.05,388.13L1131.19,409.93L1136.33,421.67L1141.47,425.02L1146.61,430.05L1151.75,428.37L1156.9,443.47L1162.04,436.76L1167.18,455.21L1172.32,435.08L1177.46,436.76L1182.61,398.19L1187.75,378.07L1192.89,378.07L1198.03,388.13L1203.17,378.07L1208.31,386.45L1213.46,369.68L1223.74,391.48L1228.88,366.33L1234.02,378.07L1239.16,373.03L1244.31,361.3L1249.45,376.39L1254.59,383.1L1259.73,371.36L1264.87,378.07L1270.02,443.47L1275.16,425.02L1280.3,445.14L1285.44,428.37L1290.58,436.76L1295.72,419.99L1300.87,419.99L1306.01,418.31L1311.15,433.41L1316.29,465.27L1321.43,460.24L1326.57,455.21L1331.72,465.27L1336.86,466.95L1342,478.68" style="vector-effect: none; fill: none; stroke: rgb(255, 0, 0); stroke-opacity: 1; stroke-width: 5px; opacity: 1;"/></g><g class="points"/><g class="text"/></g></g></g></g><path class="xlines-above crisp" d="M0,0" style="fill: none;"/><path class="ylines-above crisp" d="M103.5,106V624" style="fill: none; stroke-width: 1px; stroke: rgb(170, 178, 187); stroke-opacity: 1;"/><g class="overlines-above"><path class="xy2-x crisp" d="M0,0" style="fill: none;"/><path class="xy2-y crisp" d="M1446.5,106V624" style="fill: none; stroke-width: 1px; stroke: rgb(170, 178, 187); stroke-opacity: 1;"/></g><g class="xaxislayer-above"><g class="xtick"><text text-anchor="end" x="-2.625" y="635.5" transform="translate(121.63,0) rotate(-90,-2.625,628)" style="font-family: 'Open Sans', verdana, arial, sans-serif; font-size: 15px; fill: rgb(68, 68, 68); fill-opacity: 1; white-space: pre; opacity: 1;">21-10</text></g><g class="xtick"><text text-anchor="end" x="-2.625" y="635.5" transform="translate(189.20999999999998,0) rotate(-90,-2.625,628)" style="font-family: 'Open Sans', verdana, arial, sans-serif; font-size: 15px; fill: rgb(68, 68, 68); fill-opacity: 1; white-space: pre; opacity: 1;">22-01</text></g><g class="xtick"><text text-anchor="end" x="-2.625" y="635.5" transform="translate(255.31,0) rotate(-90,-2.625,628)" style="font-family: 'Open Sans', verdana, arial, sans-serif; font-size: 15px; fill: rgb(68, 68, 68); fill-opacity: 1; white-space: pre; opacity: 1;">22-04</text></g><g class="xtick"><text text-anchor="end" x="-2.625" y="635.5" transform="translate(322.15999999999997,0) rotate(-90,-2.625,628)" style="font-family: 'Open Sans', verdana, arial, sans-serif; font-size: 15px; fill: rgb(68, 68, 68); fill-opacity: 1; white-space: pre; opacity: 1;">22-07</text></g><g class="xtick"><text text-anchor="end" x="-2.625" y="635.5" transform="translate(389.74,0) rotate(-90,-2.625,628)" style="font-family: 'Open Sans', verdana, arial, sans-serif; font-size: 15px; fill: rgb(68, 68, 68); fill-opacity: 1; white-space: pre; opacity: 1;">22-10</text></g><g class="xtick"><text text-anchor="end" x="-2.625" y="635.5" transform="translate(457.31,0) rotate(-90,-2.625,628)" style="font-family: 'Open Sans', verdana, arial, sans-serif; font-size: 15px; fill: rgb(68, 68, 68); fill-opacity: 1; white-space: pre; opacity: 1;">23-01</text></g><g class="xtick"><text text-anchor="end" x="-2.625" y="635.5" transform="translate(523.4200000000001,0) rotate(-90,-2.625,628)" style="font-family: 'Open Sans', verdana, arial, sans-serif; font-size: 15px; fill: rgb(68, 68, 68); fill-opacity: 1; white-space: pre; opacity: 1;">23-04</text></g><g class="xtick"><text text-anchor="end" x="-2.625" y="635.5" transform="translate(590.26,0) rotate(-90,-2.625,628)" style="font-family: 'Open Sans', verdana, arial, sans-serif; font-size: 15px; fill: rgb(68, 68, 68); fill-opacity: 1; white-space: pre; opacity: 1;">23-07</text></g><g class="xtick"><text text-anchor="end" x="-2.625" y="635.5" transform="translate(657.84,0) rotate(-90,-2.625,628)" style="font-family: 'Open Sans', verdana, arial, sans-serif; font-size: 15px; fill: rgb(68, 68, 68); fill-opacity: 1; white-space: pre; opacity: 1;">23-10</text></g><g class="xtick"><text text-anchor="end" x="-2.625" y="635.5" transform="translate(725.42,0) rotate(-90,-2.625,628)" style="font-family: 'Open Sans', verdana, arial, sans-serif; font-size: 15px; fill: rgb(68, 68, 68); fill-opacity: 1; white-space: pre; opacity: 1;">24-01</text></g><g class="xtick"><text text-anchor="end" x="-2.625" y="635.5" transform="translate(792.26,0) rotate(-90,-2.625,628)" style="font-family: 'Open Sans', verdana, arial, sans-serif; font-size: 15px; fill: rgb(68, 68, 68); fill-opacity: 1; white-space: pre; opacity: 1;">24-04</text></g><g class="xtick"><text text-anchor="end" x="-2.625" y="635.5" transform="translate(859.1,0) rotate(-90,-2.625,628)" style="font-family: 'Open Sans', verdana, arial, sans-serif; font-size: 15px; fill: rgb(68, 68, 68); fill-opacity: 1; white-space: pre; opacity: 1;">24-07</text></g><g class="xtick"><text text-anchor="end" x="-2.625" y="635.5" transform="translate(926.68,0) rotate(-90,-2.625,628)" style="font-family: 'Open Sans', verdana, arial, sans-serif; font-size: 15px; fill: rgb(68, 68, 68); fill-opacity: 1; white-space: pre; opacity: 1;">24-10</text></g><g class="xtick"><text text-anchor="end" x="-2.625" y="635.5" transform="translate(994.26,0) rotate(-90,-2.625,628)" style="font-family: 'Open Sans', verdana, arial, sans-serif; font-size: 15px; fill: rgb(68, 68, 68); fill-opacity: 1; white-space: pre; opacity: 1;">25-01</text></g><g class="xtick"><text text-anchor="end" x="-2.625" y="635.5" transform="translate(1060.37,0) rotate(-90,-2.625,628)" style="font-family: 'Open Sans', verdana, arial, sans-serif; font-size: 15px; fill: rgb(68, 68, 68); fill-opacity: 1; white-space: pre; opacity: 1;">25-04</text></g><g class="xtick"><text text-anchor="end" x="-2.625" y="635.5" transform="translate(1127.21,0) rotate(-90,-2.625,628)" style="font-family: 'Open Sans', verdana, arial, sans-serif; font-size: 15px; fill: rgb(68, 68, 68); fill-opacity: 1; white-space: pre; opacity: 1;">25-07</text></g><g class="xtick"><text text-anchor="end" x="-2.625" y="635.5" transform="translate(1194.79,0) rotate(-90,-2.625,628)" style="font-family: 'Open Sans', verdana, arial, sans-serif; font-size: 15px; fill: rgb(68, 68, 68); fill-opacity: 1; white-space: pre; opacity: 1;">25-10</text></g><g class="xtick"><text text-anchor="end" x="-2.625" y="635.5" transform="translate(1262.37,0) rotate(-90,-2.625,628)" style="font-family: 'Open Sans', verdana, arial, sans-serif; font-size: 15px; fill: rgb(68, 68, 68); fill-opacity: 1; white-space: pre; opacity: 1;">26-01</text></g><g class="xtick"><text text-anchor="end" x="-2.625" y="635.5" transform="translate(1328.47,0) rotate(-90,-2.625,628)" style="font-family: 'Open Sans', verdana, arial, sans-serif; font-size: 15px; fill: rgb(68, 68, 68); fill-opacity: 1; white-space: pre; opacity: 1;">26-04</text></g><g class="xtick"><text text-anchor="end" x="-2.625" y="635.5" transform="translate(1395.32,0) rotate(-90,-2.625,628)" style="font-family: 'Open Sans', verdana, arial, sans-serif; font-size: 15px; fill: rgb(68, 68, 68); fill-opacity: 1; white-space: pre; opacity: 1;">26-07</text></g></g><g class="yaxislayer-above"><path class="ytick ticks crisp" d="M103,0h-5" transform="translate(0,603.9)" style="stroke: rgb(170, 178, 187); stroke-opacity: 1; stroke-width: 1px;"/><path class="ytick ticks crisp" d="M103,0h-5" transform="translate(0,507.18)" style="stroke: rgb(170, 178, 187); stroke-opacity: 1; stroke-width: 1px;"/><path class="ytick ticks crisp" d="M103,0h-5" transform="translate(0,410.46)" style="stroke: rgb(170, 178, 187); stroke-opacity: 1; stroke-width: 1px;"/><path class="ytick ticks crisp" d="M103,0h-5" transform="translate(0,313.74)" style="stroke: rgb(170, 178, 187); stroke-opacity: 1; stroke-width: 1px;"/><path class="ytick ticks crisp" d="M103,0h-5" transform="translate(0,217.01999999999998)" style="stroke: rgb(170, 178, 187); stroke-opacity: 1; stroke-width: 1px;"/><path class="ytick ticks crisp" d="M103,0h-5" transform="translate(0,120.28999999999999)" style="stroke: rgb(170, 178, 187); stroke-opacity: 1; stroke-width: 1px;"/><g class="ytick"><text text-anchor="end" x="93.4" y="8.049999999999999" transform="translate(0,603.9)" style="font-family: 'Open Sans', verdana, arial, sans-serif; font-size: 23px; fill: rgb(0, 0, 255); fill-opacity: 1; white-space: pre; opacity: 1;">45</text></g><g class="ytick"><text text-anchor="end" x="93.4" y="8.049999999999999" style="font-family: 'Open Sans', verdana, arial, sans-serif; font-size: 23px; fill: rgb(0, 0, 255); fill-opacity: 1; white-space: pre; opacity: 1;" transform="translate(0,507.18)">50</text></g><g class="ytick"><text text-anchor="end" x="93.4" y="8.049999999999999" style="font-family: 'Open Sans', verdana, arial, sans-serif; font-size: 23px; fill: rgb(0, 0, 255); fill-opacity: 1; white-space: pre; opacity: 1;" transform="translate(0,410.46)">55</text></g><g class="ytick"><text text-anchor="end" x="93.4" y="8.049999999999999" style="font-family: 'Open Sans', verdana, arial, sans-serif; font-size: 23px; fill: rgb(0, 0, 255); fill-opacity: 1; white-space: pre; opacity: 1;" transform="translate(0,313.74)">60</text></g><g class="ytick"><text text-anchor="end" x="93.4" y="8.049999999999999" style="font-family: 'Open Sans', verdana, arial, sans-serif; font-size: 23px; fill: rgb(0, 0, 255); fill-opacity: 1; white-space: pre; opacity: 1;" transform="translate(0,217.01999999999998)">65</text></g><g class="ytick"><text text-anchor="end" x="93.4" y="8.049999999999999" style="font-family: 'Open Sans', verdana, arial, sans-serif; font-size: 23px; fill: rgb(0, 0, 255); fill-opacity: 1; white-space: pre; opacity: 1;" transform="translate(0,120.28999999999999)">70</text></g></g><g class="overaxes-above"><g class="xy2-x"/><g class="xy2-y"><path class="y2tick ticks crisp" d="M1447,0h5" transform="translate(0,619.9)" style="stroke: rgb(170, 178, 187); stroke-opacity: 1; stroke-width: 1px;"/><path class="y2tick ticks crisp" d="M1447,0h5" transform="translate(0,536.05)" style="stroke: rgb(170, 178, 187); stroke-opacity: 1; stroke-width: 1px;"/><path class="y2tick ticks crisp" d="M1447,0h5" transform="translate(0,452.2)" style="stroke: rgb(170, 178, 187); stroke-opacity: 1; stroke-width: 1px;"/><path class="y2tick ticks crisp" d="M1447,0h5" transform="translate(0,368.35)" style="stroke: rgb(170, 178, 187); stroke-opacity: 1; stroke-width: 1px;"/><path class="y2tick ticks crisp" d="M1447,0h5" transform="translate(0,284.51)" style="stroke: rgb(170, 178, 187); stroke-opacity: 1; stroke-width: 1px;"/><path class="y2tick ticks crisp" d="M1447,0h5" transform="translate(0,200.66)" style="stroke: rgb(170, 178, 187); stroke-opacity: 1; stroke-width: 1px;"/><path class="y2tick ticks crisp" d="M1447,0h5" transform="translate(0,116.81)" style="stroke: rgb(170, 178, 187); stroke-opacity: 1; stroke-width: 1px;"/><g class="y2tick"><text text-anchor="start" x="1456.6" y="8.049999999999999" transform="translate(0,619.9)" style="font-family: 'Open Sans', verdana, arial, sans-serif; font-size: 23px; fill: rgb(255, 0, 0); fill-opacity: 1; white-space: pre; opacity: 1;">5</text></g><g class="y2tick"><text text-anchor="start" x="1456.6" y="8.049999999999999" style="font-family: 'Open Sans', verdana, arial, sans-serif; font-size: 23px; fill: rgb(255, 0, 0); fill-opacity: 1; white-space: pre; opacity: 1;" transform="translate(0,536.05)">10</text></g><g class="y2tick"><text text-anchor="start" x="1456.6" y="8.049999999999999" style="font-family: 'Open Sans', verdana, arial, sans-serif; font-size: 23px; fill: rgb(255, 0, 0); fill-opacity: 1; white-space: pre; opacity: 1;" transform="translate(0,452.2)">15</text></g><g class="y2tick"><text text-anchor="start" x="1456.6" y="8.049999999999999" style="font-family: 'Open Sans', verdana, arial, sans-serif; font-size: 23px; fill: rgb(255, 0, 0); fill-opacity: 1; white-space: pre; opacity: 1;" transform="translate(0,368.35)">20</text></g><g class="y2tick"><text text-anchor="start" x="1456.6" y="8.049999999999999" style="font-family: 'Open Sans', verdana, arial, sans-serif; font-size: 23px; fill: rgb(255, 0, 0); fill-opacity: 1; white-space: pre; opacity: 1;" transform="translate(0,284.51)">25</text></g><g class="y2tick"><text text-anchor="start" x="1456.6" y="8.049999999999999" style="font-family: 'Open Sans', verdana, arial, sans-serif; font-size: 23px; fill: rgb(255, 0, 0); fill-opacity: 1; white-space: pre; opacity: 1;" transform="translate(0,200.66)">30</text></g><g class="y2tick"><text text-anchor="start" x="1456.6" y="8.049999999999999" style="font-family: 'Open Sans', verdana, arial, sans-serif; font-size: 23px; fill: rgb(255, 0, 0); fill-opacity: 1; white-space: pre; opacity: 1;" transform="translate(0,116.81)">35</text></g></g></g></g><g class="subplot xy2"/></g><g class="polarlayer"/><g class="smithlayer"/><g class="ternarylayer"/><g class="geolayer"/><g class="funnelarealayer"/><g class="pielayer"/><g class="iciclelayer"/><g class="treemaplayer"/><g class="sunburstlayer"/><g class="glimages"/><defs id="topdefs-2cf7fa"><g class="clips"/><clipPath id="legend2cf7fa"><rect width="712" height="84" x="0" y="0"/></clipPath></defs><g class="layer-above"><g class="imagelayer"/><g class="shapelayer"/></g><g class="infolayer"><g class="legend" pointer-events="all" transform="translate(419,11.639999999999986)"><rect class="bg" shape-rendering="crispEdges" width="712" height="84" x="0" y="0" style="stroke: rgb(68, 68, 68); stroke-opacity: 1; fill: rgb(255, 255, 255); fill-opacity: 1; stroke-width: 0px;"/><g class="scrollbox" transform="" clip-path="url(#legend2cf7fa)"><g class="groups"><g class="traces" transform="translate(0,23.400000000000002)" style="opacity: 1;"><text class="legendtext" text-anchor="start" x="40" y="10.14" style="font-family: 'Open Sans', verdana, arial, sans-serif; font-size: 26px; fill: rgb(68, 68, 68); fill-opacity: 1; white-space: pre;">COMEX:黄金:期货(旧版):非商业多头持仓:持仓数量占比</text><g class="layers" style="opacity: 1;"><g class="legendfill"/><g class="legendlines"><path class="js-line" d="M5,0h30" style="fill: none; stroke: rgb(0, 0, 255); stroke-opacity: 1; stroke-width: 5px;"/></g><g class="legendsymbols"><g class="legendpoints"/></g></g><rect class="legendtoggle" x="0" y="-18.400000000000002" width="708.546875" height="36.800000000000004" style="fill: rgb(0, 0, 0); fill-opacity: 0;"/></g><g class="traces" transform="translate(0,60.2)" style="opacity: 1;"><text class="legendtext" text-anchor="start" x="40" y="10.14" style="font-family: 'Open Sans', verdana, arial, sans-serif; font-size: 26px; fill: rgb(68, 68, 68); fill-opacity: 1; white-space: pre;">COMEX:黄金:期货(旧版):非商业空头持仓:持仓数量占比</text><g class="layers" style="opacity: 1;"><g class="legendfill"/><g class="legendlines"><path class="js-line" d="M5,0h30" style="fill: none; stroke: rgb(255, 0, 0); stroke-opacity: 1; stroke-width: 5px;"/></g><g class="legendsymbols"><g class="legendpoints"/></g></g><rect class="legendtoggle" x="0" y="-18.400000000000002" width="708.546875" height="36.800000000000004" style="fill: rgb(0, 0, 0); fill-opacity: 0;"/></g></g></g><rect class="scrollbar" rx="20" ry="3" width="0" height="0" x="0" y="0" style="fill: rgb(128, 139, 164); fill-opacity: 1;"/></g><g class="g-gtitle"/><g class="g-xtitle"/><g class="g-ytitle"><text class="ytitle" transform="rotate(-90,49.300390625,365)" x="49.300390625" y="365" text-anchor="middle" style="opacity: 1; font-family: 'Open Sans', verdana, arial, sans-serif; font-size: 21px; fill: rgb(0, 0, 255); fill-opacity: 1; white-space: pre;">%</text></g><g class="g-y2title"><text class="y2title" transform="rotate(-90,1508.049609375,365)" x="1508.049609375" y="365" text-anchor="middle" style="opacity: 1; font-family: 'Open Sans', verdana, arial, sans-serif; font-size: 21px; fill: rgb(255, 0, 0); fill-opacity: 1; white-space: pre;">%</text></g></g></svg>