<svg class="main-svg" xmlns="http://www.w3.org/2000/svg" xmlns:xlink="http://www.w3.org/1999/xlink" width="1550" height="700" viewBox="0 0 1550 700" style=""><rect x="0" y="0" width="1550" height="700" style="fill: rgb(255, 255, 255); fill-opacity: 1;"/><defs id="defs-44acc1"><g class="clips"><clipPath id="clip44acc1xyplot" class="plotclip"><rect width="1342" height="538"/></clipPath><clipPath id="clip44acc1xy2plot" class="plotclip"><rect width="1342" height="538"/></clipPath><clipPath class="axesclip" id="clip44acc1x"><rect x="104" y="0" width="1342" height="700"/></clipPath><clipPath class="axesclip" id="clip44acc1y"><rect x="0" y="86" width="1550" height="538"/></clipPath><clipPath class="axesclip" id="clip44acc1xy"><rect x="104" y="86" width="1342" height="538"/></clipPath><clipPath class="axesclip" id="clip44acc1y2"><rect x="0" y="86" width="1550" height="538"/></clipPath><clipPath class="axesclip" id="clip44acc1xy2"><rect x="104" y="86" width="1342" height="538"/></clipPath></g><g class="gradients"/><g class="patterns"/></defs><g class="bglayer"/><g class="layer-below"><g class="imagelayer"/><g class="shapelayer"/></g><g class="cartesianlayer"><g class="subplot xy"><g class="layer-subplot"><g class="shapelayer"/><g class="imagelayer"/></g><g class="minor-gridlayer"><g class="x"/><g class="y"/><g class="y2"/></g><g class="gridlayer"><g class="x"/><g class="y"><path class="ygrid crisp" transform="translate(0,594.77)" d="M104,0h1342" style="stroke: rgb(232, 235, 239); stroke-opacity: 1; stroke-width: 1px;"/><path class="ygrid crisp" transform="translate(0,502.79)" d="M104,0h1342" style="stroke: rgb(232, 235, 239); stroke-opacity: 1; stroke-width: 1px;"/><path class="ygrid crisp" transform="translate(0,410.8)" d="M104,0h1342" style="stroke: rgb(232, 235, 239); stroke-opacity: 1; stroke-width: 1px;"/><path class="ygrid crisp" transform="translate(0,318.81)" d="M104,0h1342" style="stroke: rgb(232, 235, 239); stroke-opacity: 1; stroke-width: 1px;"/><path class="ygrid crisp" transform="translate(0,226.82)" d="M104,0h1342" style="stroke: rgb(232, 235, 239); stroke-opacity: 1; stroke-width: 1px;"/><path class="ygrid crisp" transform="translate(0,134.84)" d="M104,0h1342" style="stroke: rgb(232, 235, 239); stroke-opacity: 1; stroke-width: 1px;"/></g><g class="y2"/></g><g class="zerolinelayer"/><g class="layer-between"><g class="shapelayer"/><g class="imagelayer"/></g><path class="xlines-below"/><path class="ylines-below"/><g class="overlines-below"><path class="xy2-x"/><path class="xy2-y"/></g><g class="xaxislayer-below"/><g class="yaxislayer-below"/><g class="overaxes-below"><g class="xy2-x"/><g class="xy2-y"/></g><g class="overplot"><g class="xy" transform="translate(104,86)" clip-path="url(#clip44acc1xyplot)"><g class="scatterlayer mlayer"><g class="trace scatter trace90e05d" style="stroke-miterlimit: 2; opacity: 1;"><g class="fills"/><g class="errorbars"/><g class="lines"><path class="js-line" d="M0,470.1L18.86,470.1L28.76,461.12L38.35,437.39L48.26,436.02L67.76,423.85L77.66,407.73L87.25,431.16L97.16,423.05L106.75,374.22L116.65,511.1L135.83,511.1L145.74,478.07L155.33,461.47L165.23,459.83L174.82,452.37L184.73,437.33L194.64,447.25L204.22,459.4L223.72,400.05L233.63,491.37L252.48,491.37L262.39,457.7L271.98,436.86L281.89,426.43L291.48,431.28L301.38,420.39L311.29,420.57L320.88,439.04L330.79,387.65L340.37,358.79L350.28,451.18L360.19,451.18L369.14,451.18L379.05,418.74L388.63,395.46L398.54,388.09L408.13,390.29L418.04,385.6L427.94,370.06L437.53,389.63L447.44,372.09L457.03,378.43L466.94,446.48L476.84,446.48L485.79,446.48L495.7,428.55L505.29,391.18L515.2,393.85L524.78,376.73L534.69,389.42L544.6,383.27L554.19,392.91L564.09,377.34L573.68,345.7L583.59,492.5L593.5,492.5L602.77,492.5L612.67,417.74L632.17,393.15L641.76,349.01L651.66,353.55L661.57,345.75L671.16,350.13L681.07,293.68L690.66,266.5L700.56,350.36L719.42,350.36L729.33,300.71L738.91,300.46L748.82,269.05L758.41,267.25L768.32,245.37L778.23,224.17L787.81,234.43L797.72,188.15L807.31,159.84L817.22,287.43L827.12,287.43L836.07,287.43L845.98,289.91L855.57,225.64L865.48,189.75L875.06,182.29L884.97,213.7L894.88,199.25L904.47,244.56L914.38,250.08L923.96,238.51L933.87,296.9L943.78,296.9L952.73,296.9L962.63,254.75L972.22,267.92L982.13,263.39L991.72,268.17L1001.63,262.54L1011.53,239.34L1021.12,280.28L1031.03,246.37L1040.62,226.78L1050.52,289.83L1060.43,289.83L1069.7,289.83L1079.61,248.05L1089.2,229.86L1099.1,219.5L1108.69,232.4L1118.6,217.65L1128.51,226.61L1138.1,216.52L1148,210.96L1157.59,167.23L1167.5,262.2L1177.41,262.2L1186.35,262.2L1196.26,205L1205.85,204.05L1215.76,187.52L1225.35,193.78L1235.25,193.66L1245.16,181.03L1254.75,223.77L1274.24,127.51L1284.15,185.37L1303.01,185.37L1312.92,124L1322.5,92.36L1332.41,26.9L1342,52.79" style="vector-effect: none; fill: none; stroke: rgb(0, 0, 255); stroke-opacity: 1; stroke-width: 5px; opacity: 1;"/></g><g class="points"/><g class="text"/></g></g></g><g class="xy2" transform="translate(104,86)" clip-path="url(#clip44acc1xy2plot)"><g class="scatterlayer mlayer"><g class="trace scatter tracef1d649" style="stroke-miterlimit: 2; opacity: 1;"><g class="fills"/><g class="errorbars"/><g class="lines"><path class="js-line" d="M0,366.91L18.86,366.91L28.76,452.61L38.35,428.09L48.26,389.85L57.85,472.21L67.76,446.31L77.66,432.49L87.25,455.64L97.16,455.82L106.75,415.88L116.65,501.66L126.56,501.66L135.83,501.66L145.74,441.67L155.33,454.72L165.23,453.9L174.82,451.17L184.73,430.11L194.64,482.05L204.22,462.84L214.13,413.22L223.72,449.78L233.63,345.85L243.54,345.85L252.48,345.85L262.39,350.2L271.98,342.73L281.89,322.22L291.48,352.51L301.38,363.78L311.29,340.47L320.88,353.16L330.79,312.73L340.37,318.77L350.28,295.85L360.19,295.85L369.14,295.85L379.05,309.64L388.63,309.72L398.54,318.96L408.13,312.04L418.04,327.85L427.94,294.56L437.53,291.31L447.44,371.18L457.03,436.83L466.94,390.51L476.84,390.51L485.79,390.51L495.7,421.97L505.29,392.88L515.2,412.52L524.78,374.88L534.69,408.71L544.6,425.88L554.19,407.73L564.09,411.13L573.68,339.33L583.59,506.07L593.5,506.07L602.77,506.07L612.67,377.97L622.26,428.3L632.17,399.96L641.76,349.04L651.66,331.48L661.57,329.38L671.16,317.29L681.07,243.26L690.66,262.46L700.56,26.9L710.47,26.9L719.42,26.9L729.33,155.86L738.91,189.5L748.82,157.34L758.41,256.89L768.32,208.2L778.23,188.12L787.81,196.38L797.72,235.88L807.31,242.89L817.22,289.79L827.12,289.79L836.07,289.79L845.98,384.15L855.57,282.39L865.48,282.96L875.06,274.93L884.97,356.14L894.88,367.12L904.47,415.51L914.38,481.26L923.96,498.27L933.87,416.01L943.78,416.01L952.73,416.01L962.63,346.64L972.22,459.56L982.13,496.64L991.72,511.1L1001.63,467.19L1011.53,454.06L1021.12,452.25L1031.03,396.01L1040.62,384.81L1050.52,390.19L1060.43,390.19L1069.7,390.19L1079.61,391.61L1089.2,344.65L1099.1,336.52L1108.69,348.03L1118.6,335.15L1128.51,383.37L1138.1,304.03L1148,350.7L1157.59,319.17L1167.5,358.36L1177.41,358.36L1186.35,358.36L1196.26,339.59L1205.85,365.53L1215.76,357.79L1225.35,347.51L1235.25,368.78L1245.16,338.47L1254.75,411.16L1264.66,356.63L1274.24,351.82L1284.15,288.15L1294.06,288.15L1303.01,288.15L1312.92,293.77L1322.5,253.25L1332.41,194.28L1342,217.67" style="vector-effect: none; fill: none; stroke: rgb(255, 0, 0); stroke-opacity: 1; stroke-width: 5px; opacity: 1;"/></g><g class="points"/><g class="text"/></g></g></g></g><path class="xlines-above crisp" d="M0,0" style="fill: none;"/><path class="ylines-above crisp" d="M103.5,86V624" style="fill: none; stroke-width: 1px; stroke: rgb(170, 178, 187); stroke-opacity: 1;"/><g class="overlines-above"><path class="xy2-x crisp" d="M0,0" style="fill: none;"/><path class="xy2-y crisp" d="M1446.5,86V624" style="fill: none; stroke-width: 1px; stroke: rgb(170, 178, 187); stroke-opacity: 1;"/></g><g class="xaxislayer-above"><g class="xtick"><text text-anchor="middle" x="0" y="643" transform="translate(104,0)" style="font-family: 'Open Sans', verdana, arial, sans-serif; font-size: 18px; fill: rgb(68, 68, 68); fill-opacity: 1; white-space: pre; opacity: 1;">15-01</text></g><g class="xtick"><text text-anchor="middle" x="0" y="643" transform="translate(161.85,0)" style="font-family: 'Open Sans', verdana, arial, sans-serif; font-size: 18px; fill: rgb(68, 68, 68); fill-opacity: 1; white-space: pre; opacity: 1;">15-07</text></g><g class="xtick"><text text-anchor="middle" x="0" y="643" transform="translate(220.65,0)" style="font-family: 'Open Sans', verdana, arial, sans-serif; font-size: 18px; fill: rgb(68, 68, 68); fill-opacity: 1; white-space: pre; opacity: 1;">16-01</text></g><g class="xtick"><text text-anchor="middle" x="0" y="643" transform="translate(278.82,0)" style="font-family: 'Open Sans', verdana, arial, sans-serif; font-size: 18px; fill: rgb(68, 68, 68); fill-opacity: 1; white-space: pre; opacity: 1;">16-07</text></g><g class="xtick"><text text-anchor="middle" x="0" y="643" transform="translate(337.63,0)" style="font-family: 'Open Sans', verdana, arial, sans-serif; font-size: 18px; fill: rgb(68, 68, 68); fill-opacity: 1; white-space: pre; opacity: 1;">17-01</text></g><g class="xtick"><text text-anchor="middle" x="0" y="643" transform="translate(395.48,0)" style="font-family: 'Open Sans', verdana, arial, sans-serif; font-size: 18px; fill: rgb(68, 68, 68); fill-opacity: 1; white-space: pre; opacity: 1;">17-07</text></g><g class="xtick"><text text-anchor="middle" x="0" y="643" transform="translate(454.28,0)" style="font-family: 'Open Sans', verdana, arial, sans-serif; font-size: 18px; fill: rgb(68, 68, 68); fill-opacity: 1; white-space: pre; opacity: 1;">18-01</text></g><g class="xtick"><text text-anchor="middle" x="0" y="643" transform="translate(512.13,0)" style="font-family: 'Open Sans', verdana, arial, sans-serif; font-size: 18px; fill: rgb(68, 68, 68); fill-opacity: 1; white-space: pre; opacity: 1;">18-07</text></g><g class="xtick"><text text-anchor="middle" x="0" y="643" transform="translate(570.94,0)" style="font-family: 'Open Sans', verdana, arial, sans-serif; font-size: 18px; fill: rgb(68, 68, 68); fill-opacity: 1; white-space: pre; opacity: 1;">19-01</text></g><g class="xtick"><text text-anchor="middle" x="0" y="643" transform="translate(628.78,0)" style="font-family: 'Open Sans', verdana, arial, sans-serif; font-size: 18px; fill: rgb(68, 68, 68); fill-opacity: 1; white-space: pre; opacity: 1;">19-07</text></g><g class="xtick"><text text-anchor="middle" x="0" y="643" transform="translate(687.59,0)" style="font-family: 'Open Sans', verdana, arial, sans-serif; font-size: 18px; fill: rgb(68, 68, 68); fill-opacity: 1; white-space: pre; opacity: 1;">20-01</text></g><g class="xtick"><text text-anchor="middle" x="0" y="643" transform="translate(745.76,0)" style="font-family: 'Open Sans', verdana, arial, sans-serif; font-size: 18px; fill: rgb(68, 68, 68); fill-opacity: 1; white-space: pre; opacity: 1;">20-07</text></g><g class="xtick"><text text-anchor="middle" x="0" y="643" transform="translate(804.56,0)" style="font-family: 'Open Sans', verdana, arial, sans-serif; font-size: 18px; fill: rgb(68, 68, 68); fill-opacity: 1; white-space: pre; opacity: 1;">21-01</text></g><g class="xtick"><text text-anchor="middle" x="0" y="643" transform="translate(862.41,0)" style="font-family: 'Open Sans', verdana, arial, sans-serif; font-size: 18px; fill: rgb(68, 68, 68); fill-opacity: 1; white-space: pre; opacity: 1;">21-07</text></g><g class="xtick"><text text-anchor="middle" x="0" y="643" transform="translate(921.22,0)" style="font-family: 'Open Sans', verdana, arial, sans-serif; font-size: 18px; fill: rgb(68, 68, 68); fill-opacity: 1; white-space: pre; opacity: 1;">22-01</text></g><g class="xtick"><text text-anchor="middle" x="0" y="643" transform="translate(979.06,0)" style="font-family: 'Open Sans', verdana, arial, sans-serif; font-size: 18px; fill: rgb(68, 68, 68); fill-opacity: 1; white-space: pre; opacity: 1;">22-07</text></g><g class="xtick"><text text-anchor="middle" x="0" y="643" transform="translate(1037.87,0)" style="font-family: 'Open Sans', verdana, arial, sans-serif; font-size: 18px; fill: rgb(68, 68, 68); fill-opacity: 1; white-space: pre; opacity: 1;">23-01</text></g><g class="xtick"><text text-anchor="middle" x="0" y="643" transform="translate(1095.72,0)" style="font-family: 'Open Sans', verdana, arial, sans-serif; font-size: 18px; fill: rgb(68, 68, 68); fill-opacity: 1; white-space: pre; opacity: 1;">23-07</text></g><g class="xtick"><text text-anchor="middle" x="0" y="643" transform="translate(1154.52,0)" style="font-family: 'Open Sans', verdana, arial, sans-serif; font-size: 18px; fill: rgb(68, 68, 68); fill-opacity: 1; white-space: pre; opacity: 1;">24-01</text></g><g class="xtick"><text text-anchor="middle" x="0" y="643" transform="translate(1212.69,0)" style="font-family: 'Open Sans', verdana, arial, sans-serif; font-size: 18px; fill: rgb(68, 68, 68); fill-opacity: 1; white-space: pre; opacity: 1;">24-07</text></g><g class="xtick"><text text-anchor="middle" x="0" y="643" transform="translate(1271.5,0)" style="font-family: 'Open Sans', verdana, arial, sans-serif; font-size: 18px; fill: rgb(68, 68, 68); fill-opacity: 1; white-space: pre; opacity: 1;">25-01</text></g><g class="xtick"><text text-anchor="middle" x="0" y="643" transform="translate(1329.35,0)" style="font-family: 'Open Sans', verdana, arial, sans-serif; font-size: 18px; fill: rgb(68, 68, 68); fill-opacity: 1; white-space: pre; opacity: 1;">25-07</text></g><g class="xtick"><text text-anchor="middle" x="0" y="643" transform="translate(1388.15,0)" style="font-family: 'Open Sans', verdana, arial, sans-serif; font-size: 18px; fill: rgb(68, 68, 68); fill-opacity: 1; white-space: pre; opacity: 1;">26-01</text></g><g class="xtick"><text text-anchor="middle" x="0" y="643" transform="translate(1446,0)" style="font-family: 'Open Sans', verdana, arial, sans-serif; font-size: 18px; fill: rgb(68, 68, 68); fill-opacity: 1; white-space: pre; opacity: 1;">26-07</text></g></g><g class="yaxislayer-above"><path class="ytick ticks crisp" d="M103,0h-5" transform="translate(0,594.77)" style="stroke: rgb(170, 178, 187); stroke-opacity: 1; stroke-width: 1px;"/><path class="ytick ticks crisp" d="M103,0h-5" transform="translate(0,502.79)" style="stroke: rgb(170, 178, 187); stroke-opacity: 1; stroke-width: 1px;"/><path class="ytick ticks crisp" d="M103,0h-5" transform="translate(0,410.8)" style="stroke: rgb(170, 178, 187); stroke-opacity: 1; stroke-width: 1px;"/><path class="ytick ticks crisp" d="M103,0h-5" transform="translate(0,318.81)" style="stroke: rgb(170, 178, 187); stroke-opacity: 1; stroke-width: 1px;"/><path class="ytick ticks crisp" d="M103,0h-5" transform="translate(0,226.82)" style="stroke: rgb(170, 178, 187); stroke-opacity: 1; stroke-width: 1px;"/><path class="ytick ticks crisp" d="M103,0h-5" transform="translate(0,134.84)" style="stroke: rgb(170, 178, 187); stroke-opacity: 1; stroke-width: 1px;"/><g class="ytick"><text text-anchor="end" x="94" y="7" transform="translate(0,594.77)" style="font-family: 'Open Sans', verdana, arial, sans-serif; font-size: 20px; fill: rgb(0, 0, 255); fill-opacity: 1; white-space: pre; opacity: 1;">1,500</text></g><g class="ytick"><text text-anchor="end" x="94" y="7" style="font-family: 'Open Sans', verdana, arial, sans-serif; font-size: 20px; fill: rgb(0, 0, 255); fill-opacity: 1; white-space: pre; opacity: 1;" transform="translate(0,502.79)">2,000</text></g><g class="ytick"><text text-anchor="end" x="94" y="7" style="font-family: 'Open Sans', verdana, arial, sans-serif; font-size: 20px; fill: rgb(0, 0, 255); fill-opacity: 1; white-space: pre; opacity: 1;" transform="translate(0,410.8)">2,500</text></g><g class="ytick"><text text-anchor="end" x="94" y="7" style="font-family: 'Open Sans', verdana, arial, sans-serif; font-size: 20px; fill: rgb(0, 0, 255); fill-opacity: 1; white-space: pre; opacity: 1;" transform="translate(0,318.81)">3,000</text></g><g class="ytick"><text text-anchor="end" x="94" y="7" style="font-family: 'Open Sans', verdana, arial, sans-serif; font-size: 20px; fill: rgb(0, 0, 255); fill-opacity: 1; white-space: pre; opacity: 1;" transform="translate(0,226.82)">3,500</text></g><g class="ytick"><text text-anchor="end" x="94" y="7" style="font-family: 'Open Sans', verdana, arial, sans-serif; font-size: 20px; fill: rgb(0, 0, 255); fill-opacity: 1; white-space: pre; opacity: 1;" transform="translate(0,134.84)">4,000</text></g></g><g class="overaxes-above"><g class="xy2-x"/><g class="xy2-y"><path class="y2tick ticks crisp" d="M1447,0h5" transform="translate(0,564.3299999999999)" style="stroke: rgb(170, 178, 187); stroke-opacity: 1; stroke-width: 1px;"/><path class="y2tick ticks crisp" d="M1447,0h5" transform="translate(0,487.34)" style="stroke: rgb(170, 178, 187); stroke-opacity: 1; stroke-width: 1px;"/><path class="y2tick ticks crisp" d="M1447,0h5" transform="translate(0,410.35)" style="stroke: rgb(170, 178, 187); stroke-opacity: 1; stroke-width: 1px;"/><path class="y2tick ticks crisp" d="M1447,0h5" transform="translate(0,333.37)" style="stroke: rgb(170, 178, 187); stroke-opacity: 1; stroke-width: 1px;"/><path class="y2tick ticks crisp" d="M1447,0h5" transform="translate(0,256.38)" style="stroke: rgb(170, 178, 187); stroke-opacity: 1; stroke-width: 1px;"/><path class="y2tick ticks crisp" d="M1447,0h5" transform="translate(0,179.39)" style="stroke: rgb(170, 178, 187); stroke-opacity: 1; stroke-width: 1px;"/><path class="y2tick ticks crisp" d="M1447,0h5" transform="translate(0,102.4)" style="stroke: rgb(170, 178, 187); stroke-opacity: 1; stroke-width: 1px;"/><g class="y2tick"><text text-anchor="start" x="1456" y="7" transform="translate(0,564.3299999999999)" style="font-family: 'Open Sans', verdana, arial, sans-serif; font-size: 20px; fill: rgb(255, 0, 0); fill-opacity: 1; white-space: pre; opacity: 1;">−10</text></g><g class="y2tick"><text text-anchor="start" x="1456" y="7" style="font-family: 'Open Sans', verdana, arial, sans-serif; font-size: 20px; fill: rgb(255, 0, 0); fill-opacity: 1; white-space: pre; opacity: 1;" transform="translate(0,487.34)">0</text></g><g class="y2tick"><text text-anchor="start" x="1456" y="7" style="font-family: 'Open Sans', verdana, arial, sans-serif; font-size: 20px; fill: rgb(255, 0, 0); fill-opacity: 1; white-space: pre; opacity: 1;" transform="translate(0,410.35)">10</text></g><g class="y2tick"><text text-anchor="start" x="1456" y="7" style="font-family: 'Open Sans', verdana, arial, sans-serif; font-size: 20px; fill: rgb(255, 0, 0); fill-opacity: 1; white-space: pre; opacity: 1;" transform="translate(0,333.37)">20</text></g><g class="y2tick"><text text-anchor="start" x="1456" y="7" style="font-family: 'Open Sans', verdana, arial, sans-serif; font-size: 20px; fill: rgb(255, 0, 0); fill-opacity: 1; white-space: pre; opacity: 1;" transform="translate(0,256.38)">30</text></g><g class="y2tick"><text text-anchor="start" x="1456" y="7" style="font-family: 'Open Sans', verdana, arial, sans-serif; font-size: 20px; fill: rgb(255, 0, 0); fill-opacity: 1; white-space: pre; opacity: 1;" transform="translate(0,179.39)">40</text></g><g class="y2tick"><text text-anchor="start" x="1456" y="7" style="font-family: 'Open Sans', verdana, arial, sans-serif; font-size: 20px; fill: rgb(255, 0, 0); fill-opacity: 1; white-space: pre; opacity: 1;" transform="translate(0,102.4)">50</text></g></g></g></g><g class="subplot xy2"/></g><g class="polarlayer"/><g class="smithlayer"/><g class="ternarylayer"/><g class="geolayer"/><g class="funnelarealayer"/><g class="pielayer"/><g class="iciclelayer"/><g class="treemaplayer"/><g class="sunburstlayer"/><g class="glimages"/><defs id="topdefs-44acc1"><g class="clips"/><clipPath id="legend44acc1"><rect width="940" height="39" x="0" y="0"/></clipPath></defs><g class="layer-above"><g class="imagelayer"/><g class="shapelayer"/></g><g class="infolayer"><g class="legend" pointer-events="all" transform="translate(305,36.239999999999995)"><rect class="bg" shape-rendering="crispEdges" width="940" height="39" x="0" y="0" style="stroke: rgb(68, 68, 68); stroke-opacity: 1; fill: rgb(255, 255, 255); fill-opacity: 1; stroke-width: 0px;"/><g class="scrollbox" transform="" clip-path="url(#legend44acc1)"><g class="groups"><g class="traces" transform="translate(0,19.5)" style="opacity: 1;"><text class="legendtext" text-anchor="start" x="40" y="7.8" style="font-family: 'Open Sans', verdana, arial, sans-serif; font-size: 20px; fill: rgb(68, 68, 68); fill-opacity: 1; white-space: pre;">出口总值(美元计价):当月值（春节平滑处理）</text><g class="layers" style="opacity: 1;"><g class="legendfill"/><g class="legendlines"><path class="js-line" d="M5,0h30" style="fill: none; stroke: rgb(0, 0, 255); stroke-opacity: 1; stroke-width: 5px;"/></g><g class="legendsymbols"><g class="legendpoints"/></g></g><rect class="legendtoggle" x="0" y="-14.5" width="456.96875" height="29" style="fill: rgb(0, 0, 0); fill-opacity: 0;"/></g><g class="traces" transform="translate(459.46875,19.5)" style="opacity: 1;"><text class="legendtext" text-anchor="start" x="40" y="7.8" style="font-family: 'Open Sans', verdana, arial, sans-serif; font-size: 20px; fill: rgb(68, 68, 68); fill-opacity: 1; white-space: pre;">出口总值(美元计价):当月同比（春节平滑处理）</text><g class="layers" style="opacity: 1;"><g class="legendfill"/><g class="legendlines"><path class="js-line" d="M5,0h30" style="fill: none; stroke: rgb(255, 0, 0); stroke-opacity: 1; stroke-width: 5px;"/></g><g class="legendsymbols"><g class="legendpoints"/></g></g><rect class="legendtoggle" x="0" y="-14.5" width="477.359375" height="29" style="fill: rgb(0, 0, 0); fill-opacity: 0;"/></g></g></g><rect class="scrollbar" rx="20" ry="3" width="0" height="0" x="0" y="0" style="fill: rgb(128, 139, 164); fill-opacity: 1;"/></g><g class="g-gtitle"/><g class="g-xtitle"/><g class="g-ytitle"><text class="ytitle" transform="rotate(-90,21.359375,355)" x="21.359375" y="355" text-anchor="middle" style="opacity: 1; font-family: 'Open Sans', verdana, arial, sans-serif; font-size: 20px; fill: rgb(0, 0, 255); fill-opacity: 1; white-space: pre;">亿美元</text></g><g class="g-y2title"><text class="y2title" transform="rotate(-90,1519.296875,355)" x="1519.296875" y="355" text-anchor="middle" style="opacity: 1; font-family: 'Open Sans', verdana, arial, sans-serif; font-size: 20px; fill: rgb(255, 0, 0); fill-opacity: 1; white-space: pre;">%</text></g></g></svg>