<svg class="main-svg" xmlns="http://www.w3.org/2000/svg" xmlns:xlink="http://www.w3.org/1999/xlink" width="1550" height="700" viewBox="0 0 1550 700" style=""><rect x="0" y="0" width="1550" height="700" style="fill: rgb(255, 255, 255); fill-opacity: 1;"/><defs id="defs-899d3c"><g class="clips"><clipPath id="clip899d3cxyplot" class="plotclip"><rect width="1342" height="538"/></clipPath><clipPath id="clip899d3cxy2plot" class="plotclip"><rect width="1342" height="538"/></clipPath><clipPath class="axesclip" id="clip899d3cx"><rect x="104" y="0" width="1342" height="700"/></clipPath><clipPath class="axesclip" id="clip899d3cy"><rect x="0" y="86" width="1550" height="538"/></clipPath><clipPath class="axesclip" id="clip899d3cxy"><rect x="104" y="86" width="1342" height="538"/></clipPath><clipPath class="axesclip" id="clip899d3cy2"><rect x="0" y="86" width="1550" height="538"/></clipPath><clipPath class="axesclip" id="clip899d3cxy2"><rect x="104" y="86" width="1342" height="538"/></clipPath></g><g class="gradients"/><g class="patterns"/></defs><g class="bglayer"/><g class="layer-below"><g class="imagelayer"/><g class="shapelayer"/></g><g class="cartesianlayer"><g class="subplot xy"><g class="layer-subplot"><g class="shapelayer"/><g class="imagelayer"/></g><g class="minor-gridlayer"><g class="x"/><g class="y"/><g class="y2"/></g><g class="gridlayer"><g class="x"/><g class="y"><path class="ygrid crisp" transform="translate(0,600.62)" d="M104,0h1342" style="stroke: rgb(232, 235, 239); stroke-opacity: 1; stroke-width: 1px;"/><path class="ygrid crisp" transform="translate(0,530.63)" d="M104,0h1342" style="stroke: rgb(232, 235, 239); stroke-opacity: 1; stroke-width: 1px;"/><path class="ygrid crisp" transform="translate(0,460.64)" d="M104,0h1342" style="stroke: rgb(232, 235, 239); stroke-opacity: 1; stroke-width: 1px;"/><path class="ygrid crisp" transform="translate(0,390.65)" d="M104,0h1342" style="stroke: rgb(232, 235, 239); stroke-opacity: 1; stroke-width: 1px;"/><path class="ygrid crisp" transform="translate(0,320.65999999999997)" d="M104,0h1342" style="stroke: rgb(232, 235, 239); stroke-opacity: 1; stroke-width: 1px;"/><path class="ygrid crisp" transform="translate(0,250.67)" d="M104,0h1342" style="stroke: rgb(232, 235, 239); stroke-opacity: 1; stroke-width: 1px;"/><path class="ygrid crisp" transform="translate(0,180.68)" d="M104,0h1342" style="stroke: rgb(232, 235, 239); stroke-opacity: 1; stroke-width: 1px;"/><path class="ygrid crisp" transform="translate(0,110.69)" d="M104,0h1342" style="stroke: rgb(232, 235, 239); stroke-opacity: 1; stroke-width: 1px;"/></g><g class="y2"/></g><g class="zerolinelayer"/><g class="layer-between"><g class="shapelayer"/><g class="imagelayer"/></g><path class="xlines-below"/><path class="ylines-below"/><g class="overlines-below"><path class="xy2-x"/><path class="xy2-y"/></g><g class="xaxislayer-below"/><g class="yaxislayer-below"/><g class="overaxes-below"><g class="xy2-x"/><g class="xy2-y"/></g><g class="overplot"><g class="xy" transform="translate(104,86)" clip-path="url(#clip899d3cxyplot)"><g class="scatterlayer mlayer"><g class="trace scatter trace189e08" style="stroke-miterlimit: 2; opacity: 1;"><g class="fills"/><g class="errorbars"/><g class="lines"><path class="js-line" d="M2.61,410.86L7.83,495.92L11.75,511.1L14.36,477.73L15.67,488.71L16.97,467.31L20.89,434.08L22.19,427.81L23.5,435.01L24.8,416.28L26.11,416.85L31.33,321.31L32.64,323.26L33.94,343.6L35.25,334.3L40.47,321.15L41.77,309.07L43.08,326L44.39,317.11L49.61,341.2L50.91,333.35L53.52,290.98L58.75,283.46L60.05,291.51L61.36,283.73L62.66,261.57L66.58,302.5L69.19,355.16L70.49,332.7L71.8,324.3L75.72,329.86L78.33,322.13L79.63,337.26L80.94,331.03L84.85,363.89L86.16,366.12L87.46,370.99L93.99,332.01L95.3,306.96L96.6,322.78L97.91,318.6L99.21,281.42L104.44,222.69L105.74,258.18L107.05,216.66L108.35,231.83L112.27,256.83L114.88,218.21L116.18,230.58L117.49,242.95L121.41,250.35L122.71,249.78L124.02,234.23L125.32,222.81L126.63,273.68L130.54,303.71L131.85,300.85L134.46,272.81L135.77,214.74L139.68,213.79L140.99,221.26L143.6,264.94L144.9,247.64L148.82,254.79L150.13,189.26L151.43,176.33L152.74,183.38L157.96,164.29L159.26,124.01L161.88,214.65L163.18,216.81L167.1,188.37L168.4,154.16L171.01,116.69L172.32,141.17L177.54,163.55L178.85,132.97L180.15,150.02L181.46,149.94L185.37,135.96L186.68,159.17L187.98,169.05L189.29,165.36L190.6,193.11L194.51,131.45L197.12,191.64L198.43,223.26L199.73,212.17L203.65,221.69L204.96,223.98L206.26,206.72L208.87,184.52L212.79,170.36L214.09,165.77L215.4,191.32L218.01,162.68L221.93,110.04L223.23,114.17L224.54,173.69L225.84,166.1L227.15,167.69L234.98,228.75L236.29,278.5L240.2,257.71L241.51,287.51L242.81,286.66L244.12,277.01L245.42,276.03L249.34,265.31L251.95,229.48L253.26,241.11L254.56,205.29L258.48,231.34L262.39,242.84L263.7,242.43L268.92,218.1L270.23,185.66L271.53,153.58L272.84,179.71L278.06,98.49L279.37,102.36L281.98,104.21L285.89,181.16L288.5,162.07L289.81,171.21L291.11,114.9L295.03,137.48L297.64,181.58L298.95,200.32L300.25,193.4L304.17,146.95L305.47,175.28L306.78,144.31L308.09,113.05L309.39,129.9L313.31,120.81L314.61,98.59L315.92,67.31L317.22,133.58L318.53,122.3L322.45,156.48L323.75,178.37L325.06,160.52L326.36,170.17L327.67,156.52L331.58,120.35L332.89,127.46L335.5,167.67L336.81,169.18L342.03,26.9L343.33,50.93L344.64,61.67L345.94,49.84L349.86,97.9L351.17,130.59L352.47,124.23L353.78,108.64L355.08,145.39L360.3,183.42L361.61,188.07L362.91,201.04L364.22,206.36L368.14,184.74L369.44,164.15L370.75,190.75L373.36,230.46L377.27,164.73L378.58,119.34L379.89,131.13L382.5,169.22L386.41,197.48L387.72,184.57L389.02,220.78L390.33,217.82L391.63,185.59L395.55,186.2L396.86,195.63L399.47,212.74L400.77,167.72L404.69,167.98L405.99,174.89L407.3,183.56L408.61,127.41L409.91,88.27L413.83,143.95L415.13,168.62L416.44,142.19L417.74,141.89L419.05,167.88L424.27,229.82L425.58,228.94L428.19,193.92L432.1,199.96L434.71,228.72L436.02,264.42L437.32,249.94L441.24,277.8L442.55,235.16L443.85,267.04L446.46,288.44L450.38,275.64L452.99,348.74L454.3,344.47L455.6,345.29L459.52,419.1L460.82,428.7L462.13,428.09L464.74,374.95L468.66,413.46L469.96,404.32L471.27,407.18L473.88,393.28L477.79,403.07L479.1,391.14L480.4,410.86L483.02,451.42L486.93,510.23L488.24,501.14L489.54,511.1L492.15,477.73L496.07,473.41L497.38,466.95L498.68,434.08L499.99,427.81L501.29,435.01L509.12,321.31L510.43,323.26L514.35,339.55L515.65,324.01L518.26,321.15L519.57,309.07L523.48,326.82L524.79,349.62L526.1,339.28L527.4,341.2L528.71,333.35L532.62,279.2L533.93,248.75L535.23,313.05L536.54,283.46L537.84,291.51L543.07,285.62L544.37,302.5L546.98,355.16L550.9,348.79L554.82,325.14L556.12,322.13L560.04,338.4L561.34,352.21L563.95,366.12L565.26,370.99L569.18,340.35L570.48,319.24L571.79,332.01L573.09,306.96L574.4,322.78L579.62,259.08L580.92,218.07L582.23,222.69L583.54,258.18L587.45,221.56L588.76,260.07L590.06,256.83L592.67,218.21L596.59,210.98L597.89,250.35L599.2,249.78L601.81,222.81L605.73,299.48L607.03,303.71L608.34,300.85L610.95,272.81L614.87,184.87L617.48,221.26L618.78,243.09L620.09,264.94L624,228.45L625.31,254.79L626.61,189.26L627.92,176.33L629.23,183.38L633.14,159.29L634.45,164.29L635.75,124.01L637.06,181.89L638.36,214.65L642.28,229.58L646.2,127.23L647.5,116.69L652.72,161.05L654.03,163.55L655.33,132.97L660.56,142.55L661.86,135.96L663.17,159.17L664.47,169.05L665.78,165.36L669.69,154.21L671,131.45L673.61,191.64L674.92,223.26L678.83,200.02L680.14,221.69L681.44,223.98L682.75,206.72L684.05,199.02L687.97,159.45L689.28,170.36L690.58,165.77L691.89,191.32L693.19,179.94L697.11,156.08L698.41,110.04L699.72,114.17L701.03,173.69L702.33,166.1L707.55,191.32L715.39,269.71L716.69,257.71L718,287.51L719.3,286.66L720.61,277.01L724.52,277.23L727.13,247.31L728.44,229.48L729.75,241.11L733.66,237.24L734.97,231.34L736.27,236.88L738.88,242.84L742.8,203L744.11,224.73L745.41,218.1L748.02,153.58L751.94,144.49L754.55,98.49L755.85,102.36L761.08,138.55L762.38,181.16L764.99,162.07L766.3,171.21L770.21,136.08L771.52,137.48L774.13,181.58L775.44,200.32L780.66,146.95L781.96,175.28L784.57,113.05L788.49,146.31L792.41,67.31L793.71,133.58L797.63,158.1L798.93,156.48L800.24,178.37L801.54,160.52L802.85,170.17L806.77,110.63L809.38,127.46L810.68,161.9L811.99,167.67L815.9,94.44L818.52,26.9L819.82,50.93L826.35,97.9L827.65,130.59L828.96,124.23L830.26,108.64L835.49,185.17L836.79,183.42L838.1,188.07L839.4,201.04L843.32,213.89L844.62,184.74L845.93,164.15L847.24,190.75L848.54,210.47L852.46,205.5L855.07,119.34L856.37,131.13L857.68,156.07L861.6,180.66L862.9,197.48L864.21,184.57L865.51,220.78L866.82,217.82L870.73,216.17L872.04,186.2L875.96,212.74L879.87,157.49L883.79,183.56L885.09,127.41L889.01,95L890.32,143.95L891.62,168.62L892.93,142.19L894.23,141.89L898.15,182.37L900.76,229.82L902.06,228.94L903.37,216.26L907.29,195.02L908.59,199.96L909.9,217.03L911.2,228.72L912.51,264.42L916.42,236.79L917.73,277.8L919.04,235.16L920.34,267.04L921.65,286.01L925.56,283.97L926.87,275.64L928.17,322.06L929.48,348.74L930.78,344.47L936.01,419.1L937.31,428.7L938.62,428.09L939.92,397.65L943.84,388.81L945.14,413.46L949.06,386.68L952.98,385.81L954.28,403.07L955.59,391.14L963.42,510.23L964.73,501.14L966.03,511.1L967.34,481.39L971.25,467.31L972.56,473.41L973.86,466.95L975.17,434.08L976.47,427.81L980.39,416.85L983,344.9L985.61,321.31L990.83,339.55L992.14,324.01L998.67,317.11L999.97,326.82L1001.28,349.62L1002.58,339.28L1003.89,341.2L1007.81,290.98L1009.11,279.2L1010.42,248.75L1011.72,313.05L1013.03,283.46L1018.25,271.6L1019.55,285.62L1020.86,302.5L1022.17,335.97L1026.08,324.3L1027.39,348.79L1031.3,325.14L1035.22,331.03L1037.83,352.21L1039.14,363.89L1040.44,366.12L1044.36,356.65L1046.97,319.24L1048.27,332.01L1049.58,306.96L1054.8,294.09L1057.41,218.07L1058.72,222.69L1062.63,231.83L1063.94,221.56L1065.25,260.07L1066.55,256.83L1067.86,237.53L1071.77,228L1073.08,210.98L1074.38,250.35L1075.69,249.78L1076.99,234.23L1082.22,299.48L1083.52,303.71L1084.83,300.85L1086.13,288.93L1091.35,184.87L1092.66,213.79L1093.96,221.26L1095.27,243.09L1099.19,252.55L1100.49,228.45L1101.8,254.79L1103.1,189.26L1104.41,176.33L1108.32,172.47L1109.63,159.29L1110.94,164.29L1112.24,124.01L1117.46,194.79L1118.77,229.58L1120.07,188.37L1122.68,127.23L1126.6,161.42L1127.91,158.69L1129.21,161.05L1130.52,163.55L1131.82,132.97L1135.74,146.41L1137.04,142.55L1138.35,135.96L1139.66,159.17L1140.96,169.05L1144.88,189.1L1147.49,131.45L1148.79,153.3L1150.1,191.64L1154.02,223.44L1155.32,200.02L1156.63,221.69L1157.93,223.98L1159.24,206.72L1163.15,182.65L1164.46,159.45L1165.76,170.36L1167.07,165.77L1168.38,191.32L1172.29,126.77L1173.6,156.08L1174.9,110.04L1176.21,114.17L1177.51,173.69L1182.74,195.71L1184.04,191.32L1191.87,269.71L1193.18,257.71L1194.48,287.51L1195.79,286.66L1199.71,303.34L1201.01,277.23L1203.62,247.31L1204.93,229.48L1208.84,227.96L1210.15,237.24L1211.46,231.34L1212.76,236.88L1217.98,194.4L1219.29,203L1220.59,224.73L1221.9,218.1L1223.2,185.66L1227.12,168.62L1231.04,98.49L1236.26,81.2L1238.87,181.16L1240.18,173.82L1241.48,162.07L1245.4,103.39L1246.7,136.08L1248.01,137.48L1250.62,181.58L1254.54,201.15L1257.15,146.95L1258.45,175.28L1259.76,144.31L1263.67,141.55L1264.98,146.31L1266.28,120.81L1268.89,67.31L1272.81,160.9L1275.42,156.48L1276.73,178.37L1278.03,160.52L1281.95,124.17L1283.25,110.63L1284.56,120.35L1285.87,127.46L1287.17,161.9L1291.09,147.1L1292.39,94.44L1295,26.9L1296.31,50.93L1300.23,59.15L1301.53,96.8L1302.84,97.9L1304.14,130.59L1305.45,124.23L1309.36,139.17L1310.67,186.64L1311.97,185.17L1313.28,183.42L1314.59,188.07L1319.81,213.89L1321.11,184.74L1322.42,164.15L1323.72,190.75L1327.64,215.85L1328.95,205.5L1331.56,119.34L1332.86,131.13L1339.39,197.48L1340.69,184.57" style="vector-effect: none; fill: none; stroke: rgb(0, 0, 255); stroke-opacity: 1; stroke-width: 5px; opacity: 1;"/></g><g class="points"/><g class="text"/></g></g></g><g class="xy2" transform="translate(104,86)" clip-path="url(#clip899d3cxy2plot)"><g class="scatterlayer mlayer"><g class="trace scatter trace566b7b" style="stroke-miterlimit: 2; opacity: 1;"><g class="fills"/><g class="errorbars"/><g class="lines"><path class="js-line" d="M0,346.27L1.31,356.57L2.61,346.27L3.92,356.57L5.22,387.47L7.83,387.47L9.14,366.87L11.75,284.45L13.05,346.27L14.36,335.96L15.67,284.45L18.28,418.38L19.58,418.38L20.89,469.89L22.19,428.68L23.5,428.68L24.8,469.89L31.33,325.66L32.64,346.27L33.94,346.27L35.25,366.87L36.55,366.87L37.86,377.17L39.16,377.17L40.47,335.96L41.77,366.87L43.08,366.87L45.69,346.27L47,366.87L48.3,356.57L49.61,335.96L52.22,284.45L53.52,325.66L54.83,325.66L56.13,377.17L57.44,418.38L58.75,387.47L60.05,377.17L61.36,387.47L62.66,397.78L63.97,387.47L65.27,397.78L66.58,377.17L67.88,356.57L69.19,356.57L70.49,366.87L71.8,387.47L74.41,294.76L75.72,274.15L77.02,377.17L78.33,377.17L80.94,243.24L82.24,284.45L83.55,305.06L84.85,284.45L86.16,315.36L87.46,305.06L88.77,335.96L90.08,305.06L91.38,325.66L92.69,243.24L93.99,263.85L95.3,212.34L96.6,222.64L97.91,263.85L99.21,263.85L100.52,315.36L101.82,346.27L103.13,346.27L104.44,366.87L105.74,366.87L107.05,305.06L108.35,356.57L109.66,335.96L110.96,366.87L112.27,315.36L113.57,325.66L114.88,315.36L116.18,274.15L117.49,263.85L118.8,305.06L121.41,346.27L122.71,335.96L124.02,325.66L125.32,305.06L126.63,294.76L127.93,253.55L129.24,191.73L130.54,253.55L131.85,263.85L133.16,263.85L134.46,315.36L135.77,212.34L137.07,181.43L138.38,212.34L140.99,315.36L142.29,315.36L143.6,232.94L144.9,294.76L146.21,253.55L147.52,294.76L148.82,212.34L150.13,315.36L151.43,263.85L152.74,263.85L155.35,160.83L156.65,243.24L159.26,150.53L160.57,263.85L161.88,253.55L163.18,305.06L165.79,171.13L167.1,150.53L168.4,202.04L169.71,305.06L171.01,274.15L172.32,315.36L174.93,181.43L176.24,243.24L177.54,253.55L178.85,202.04L180.15,212.34L181.46,202.04L182.76,202.04L184.07,171.13L185.37,160.83L186.68,160.83L187.98,140.22L189.29,171.13L190.6,160.83L191.9,222.64L193.21,129.92L194.51,181.43L195.82,171.13L197.12,150.53L198.43,129.92L199.73,150.53L201.04,140.22L202.34,150.53L203.65,171.13L204.96,140.22L206.26,140.22L207.57,150.53L208.87,150.53L210.18,171.13L211.48,191.73L212.79,181.43L215.4,129.92L216.7,160.83L218.01,171.13L219.32,160.83L220.62,119.62L221.93,129.92L223.23,78.41L224.54,99.01L225.84,109.32L227.15,88.71L228.45,150.53L229.76,99.01L231.06,88.71L232.37,109.32L233.68,181.43L234.98,150.53L236.29,99.01L237.59,150.53L238.9,140.22L240.2,160.83L242.81,109.32L244.12,119.62L245.42,88.71L246.73,99.01L248.04,99.01L249.34,129.92L250.65,99.01L251.95,109.32L253.26,150.53L254.56,78.41L255.87,99.01L257.17,99.01L258.48,68.11L259.78,99.01L261.09,129.92L262.39,129.92L263.7,140.22L265.01,160.83L266.31,119.62L267.62,160.83L268.92,119.62L270.23,119.62L272.84,119.62L274.14,140.22L275.45,129.92L276.75,88.71L278.06,68.11L279.37,78.41L280.67,88.71L281.98,109.32L283.28,88.71L284.59,119.62L287.2,202.04L288.5,140.22L289.81,88.71L291.11,129.92L292.42,140.22L293.73,119.62L295.03,119.62L296.34,109.32L297.64,109.32L298.95,150.53L300.25,150.53L301.56,140.22L304.17,191.73L305.47,171.13L308.09,129.92L309.39,119.62L310.7,129.92L312,129.92L313.31,78.41L314.61,160.83L315.92,202.04L317.22,160.83L318.53,129.92L319.83,160.83L321.14,181.43L322.45,181.43L325.06,181.43L326.36,191.73L327.67,191.73L328.97,171.13L330.28,140.22L331.58,140.22L332.89,181.43L334.19,150.53L335.5,140.22L336.81,160.83L338.11,181.43L339.42,160.83L340.72,191.73L342.03,140.22L343.33,150.53L344.64,171.13L345.94,181.43L347.25,222.64L348.55,222.64L349.86,232.94L351.17,181.43L352.47,202.04L353.78,202.04L355.08,243.24L356.39,202.04L357.69,202.04L359,222.64L360.3,202.04L361.61,202.04L362.91,160.83L364.22,222.64L365.53,191.73L366.83,191.73L368.14,232.94L369.44,274.15L370.75,212.34L372.05,202.04L373.36,181.43L375.97,284.45L377.27,274.15L378.58,263.85L379.89,232.94L383.8,150.53L385.11,160.83L386.41,171.13L387.72,222.64L389.02,243.24L390.33,243.24L392.94,284.45L394.25,253.55L396.86,160.83L398.16,160.83L400.77,294.76L402.08,284.45L404.69,171.13L405.99,160.83L408.61,274.15L409.91,274.15L411.22,232.94L412.52,263.85L413.83,346.27L415.13,346.27L416.44,263.85L417.74,274.15L419.05,243.24L420.35,243.24L421.66,284.45L422.96,274.15L424.27,284.45L425.58,377.17L428.19,325.66L429.49,305.06L430.8,284.45L432.1,315.36L433.41,305.06L434.71,356.57L436.02,366.87L437.32,387.47L438.63,387.47L439.94,366.87L442.55,387.47L443.85,418.38L445.16,397.78L446.46,294.76L447.77,315.36L449.07,305.06L450.38,243.24L451.68,356.57L454.3,438.99L455.6,377.17L458.21,294.76L459.52,305.06L460.82,377.17L462.13,377.17L464.74,480.19L466.04,469.89L467.35,377.17L468.66,397.78L469.96,428.68L471.27,377.17L475.18,263.85L476.49,315.36L477.79,325.66L479.1,346.27L481.71,418.38L483.02,418.38L484.32,408.08L485.63,418.38L486.93,459.59L488.24,418.38L489.54,397.78L490.85,408.08L493.46,366.87L494.76,387.47L496.07,428.68L497.38,428.68L499.99,366.87L501.29,387.47L503.9,490.5L505.21,500.8L507.82,428.68L509.12,449.29L510.43,387.47L511.74,387.47L513.04,387.47L514.35,346.27L515.65,408.08L516.96,377.17L518.26,377.17L519.57,387.47L520.87,346.27L522.18,366.87L523.48,428.68L524.79,408.08L526.1,377.17L527.4,418.38L530.01,387.47L531.32,418.38L532.62,428.68L533.93,346.27L535.23,408.08L536.54,408.08L537.84,315.36L539.15,397.78L540.46,438.99L541.76,438.99L543.07,459.59L544.37,449.29L546.98,356.57L548.29,315.36L549.59,315.36L550.9,305.06L553.51,305.06L554.82,284.45L556.12,428.68L557.43,387.47L558.73,294.76L560.04,315.36L561.34,305.06L562.65,325.66L563.95,366.87L565.26,305.06L567.87,232.94L569.18,335.96L570.48,335.96L571.79,325.66L574.4,274.15L575.7,274.15L577.01,274.15L578.31,305.06L579.62,305.06L580.92,315.36L582.23,263.85L583.54,325.66L584.84,294.76L586.15,294.76L587.45,335.96L588.76,315.36L590.06,263.85L591.37,129.92L592.67,294.76L593.98,191.73L596.59,346.27L597.89,191.73L600.51,315.36L601.81,315.36L603.12,356.57L604.42,335.96L605.73,335.96L607.03,346.27L608.34,346.27L609.64,377.17L612.25,274.15L613.56,232.94L614.87,315.36L616.17,243.24L617.48,232.94L618.78,140.22L621.39,294.76L622.7,181.43L624,181.43L625.31,202.04L626.61,191.73L627.92,222.64L629.23,284.45L630.53,191.73L631.84,140.22L633.14,191.73L634.45,232.94L635.75,150.53L637.06,129.92L638.36,222.64L639.67,263.85L640.97,243.24L643.59,191.73L644.89,263.85L647.5,191.73L648.81,202.04L650.11,212.34L651.42,243.24L652.72,222.64L654.03,222.64L655.33,140.22L656.64,191.73L659.25,222.64L660.56,294.76L661.86,305.06L663.17,253.55L664.47,274.15L665.78,232.94L667.08,202.04L668.39,202.04L669.69,243.24L671,191.73L672.31,191.73L673.61,212.34L674.92,212.34L676.22,202.04L680.14,109.32L681.44,119.62L684.05,181.43L685.36,212.34L689.28,88.71L690.58,191.73L691.89,243.24L693.19,222.64L694.5,232.94L695.8,222.64L698.41,88.71L699.72,109.32L701.03,119.62L702.33,88.71L704.94,26.9L706.25,57.81L708.86,191.73L710.16,119.62L711.47,99.01L712.77,119.62L714.08,109.32L715.39,140.22L716.69,88.71L718,119.62L719.3,119.62L720.61,109.32L721.91,129.92L723.22,57.81L727.13,140.22L728.44,140.22L729.75,150.53L731.05,129.92L733.66,109.32L734.97,88.71L736.27,99.01L737.58,150.53L738.88,99.01L740.19,129.92L741.49,160.83L742.8,150.53L744.11,119.62L745.41,57.81L746.72,129.92L748.02,119.62L749.33,57.81L750.63,57.81L751.94,78.41L753.24,140.22L754.55,181.43L755.85,150.53L757.16,140.22L758.46,119.62L759.77,129.92L761.08,150.53L762.38,150.53L763.69,160.83L764.99,150.53L766.3,129.92L767.6,129.92L768.91,109.32L770.21,109.32L771.52,129.92L772.82,99.01L774.13,140.22L775.44,78.41L776.74,181.43L779.35,202.04L780.66,191.73L781.96,129.92L783.27,160.83L784.57,160.83L785.88,119.62L788.49,181.43L789.8,171.13L792.41,171.13L793.71,160.83L795.02,181.43L796.32,181.43L798.93,160.83L800.24,119.62L801.54,129.92L802.85,181.43L804.16,202.04L805.46,191.73L806.77,243.24L808.07,150.53L809.38,150.53L810.68,171.13L811.99,140.22L813.29,160.83L814.6,181.43L815.9,222.64L818.52,129.92L819.82,202.04L821.13,222.64L822.43,202.04L823.74,150.53L825.04,171.13L826.35,171.13L827.65,129.92L828.96,160.83L830.26,140.22L831.57,160.83L832.88,150.53L834.18,232.94L835.49,232.94L839.4,150.53L840.71,129.92L842.01,129.92L843.32,202.04L844.62,274.15L845.93,253.55L847.24,232.94L848.54,253.55L849.85,263.85L851.15,243.24L852.46,222.64L853.76,274.15L857.68,212.34L858.98,263.85L860.29,222.64L861.6,253.55L862.9,274.15L864.21,263.85L866.82,284.45L868.12,284.45L869.43,294.76L870.73,294.76L872.04,243.24L873.34,284.45L874.65,284.45L875.96,263.85L877.26,263.85L878.57,274.15L879.87,232.94L881.18,305.06L883.79,253.55L885.09,253.55L886.4,263.85L887.7,356.57L889.01,315.36L890.32,315.36L892.93,315.36L894.23,294.76L895.54,356.57L896.84,346.27L898.15,335.96L899.45,346.27L900.76,305.06L902.06,305.06L904.68,305.06L905.98,263.85L907.29,263.85L908.59,294.76L909.9,366.87L911.2,366.87L912.51,346.27L913.81,377.17L915.12,377.17L916.42,366.87L919.04,418.38L920.34,387.47L921.65,377.17L922.95,387.47L924.26,418.38L925.56,356.57L926.87,366.87L928.17,408.08L929.48,366.87L930.78,418.38L932.09,449.29L933.39,408.08L937.31,294.76L938.62,397.78L939.92,377.17L941.23,397.78L942.53,356.57L943.84,356.57L945.14,356.57L946.45,428.68L947.75,428.68L949.06,418.38L950.37,325.66L951.67,418.38L952.98,418.38L954.28,449.29L955.59,428.68L956.89,428.68L958.2,408.08L959.5,408.08L960.81,397.78L962.11,346.27L963.42,335.96L964.73,305.06L966.03,315.36L967.34,335.96L968.64,366.87L969.95,335.96L971.25,325.66L972.56,356.57L973.86,418.38L975.17,408.08L976.47,397.78L977.78,408.08L979.09,438.99L980.39,408.08L981.7,366.87L983,408.08L984.31,511.1L985.61,480.19L986.92,438.99L988.22,500.8L989.53,469.89L990.83,490.5L992.14,480.19L993.45,511.1L994.75,490.5L996.06,438.99L997.36,397.78L998.67,418.38L1001.28,449.29L1002.58,459.59L1003.89,511.1L1005.19,459.59L1007.81,387.47L1009.11,418.38L1010.42,408.08L1011.72,377.17L1013.03,377.17L1014.33,408.08L1015.64,346.27L1016.94,377.17L1018.25,377.17L1019.55,387.47L1020.86,366.87L1022.17,366.87L1024.78,438.99L1026.08,397.78L1027.39,397.78L1028.69,346.27L1030,335.96L1031.3,335.96L1032.61,438.99L1033.91,366.87L1035.22,335.96L1036.53,356.57L1037.83,408.08L1039.14,315.36L1040.44,222.64L1041.75,222.64L1044.36,181.43L1045.66,294.76L1048.27,335.96L1049.58,315.36L1050.89,284.45L1052.19,377.17L1053.5,408.08L1054.8,366.87L1056.11,274.15L1057.41,274.15L1058.72,212.34L1060.02,356.57L1061.33,356.57L1062.63,325.66L1063.94,202.04L1065.25,284.45L1066.55,346.27L1067.86,294.76L1069.16,253.55L1070.47,171.13L1071.77,202.04L1073.08,335.96L1074.38,202.04L1075.69,243.24L1076.99,253.55L1078.3,294.76L1080.91,356.57L1082.22,356.57L1083.52,232.94L1084.83,232.94L1086.13,305.06L1087.44,150.53L1088.74,140.22L1090.05,109.32L1091.35,119.62L1092.66,160.83L1095.27,294.76L1096.58,305.06L1097.88,325.66L1099.19,294.76L1100.49,191.73L1101.8,232.94L1103.1,335.96L1104.41,284.45L1105.71,243.24L1107.02,253.55L1108.32,274.15L1109.63,263.85L1110.94,253.55L1112.24,274.15L1113.55,274.15L1114.85,212.34L1116.16,150.53L1117.46,222.64L1118.77,232.94L1120.07,253.55L1121.38,253.55L1122.68,150.53L1123.99,253.55L1125.3,243.24L1126.6,202.04L1127.91,274.15L1129.21,243.24L1130.52,181.43L1134.43,78.41L1135.74,119.62L1137.04,253.55L1138.35,222.64L1140.96,294.76L1142.27,202.04L1144.88,129.92L1146.18,202.04L1147.49,150.53L1148.79,274.15L1150.1,181.43L1151.4,181.43L1152.71,150.53L1154.02,150.53L1155.32,140.22L1156.63,119.62L1157.93,99.01L1159.24,129.92L1160.54,181.43L1161.85,160.83L1163.15,150.53L1164.46,99.01L1165.76,88.71L1167.07,119.62L1168.38,99.01L1169.68,150.53L1170.99,171.13L1172.29,150.53L1173.6,119.62L1174.9,119.62L1177.51,140.22L1178.82,181.43L1180.12,181.43L1181.43,129.92L1182.74,119.62L1184.04,129.92L1185.35,191.73L1186.65,140.22L1187.96,129.92L1189.26,99.01L1193.18,37.2L1194.48,109.32L1197.1,212.34L1198.4,140.22L1199.71,129.92L1201.01,99.01L1203.62,150.53L1204.93,129.92L1206.23,140.22L1207.54,88.71L1208.84,37.2L1210.15,68.11L1212.76,150.53L1214.07,129.92L1215.37,150.53L1216.68,140.22L1217.98,109.32L1219.29,140.22L1220.59,150.53L1221.9,150.53L1224.51,129.92L1225.82,140.22L1227.12,140.22L1228.43,160.83L1229.73,109.32L1231.04,119.62L1232.34,140.22L1233.65,99.01L1234.95,129.92L1236.26,129.92L1237.56,78.41L1238.87,78.41L1240.18,78.41L1241.48,68.11L1244.09,99.01L1245.4,88.71L1246.7,99.01L1248.01,119.62L1249.31,119.62L1250.62,150.53L1251.92,119.62L1253.23,119.62L1254.54,109.32L1255.84,140.22L1257.15,150.53L1258.45,171.13L1259.76,129.92L1261.06,140.22L1262.37,150.53L1263.67,129.92L1264.98,140.22L1266.28,119.62L1267.59,140.22L1268.89,140.22L1270.2,150.53L1271.51,99.01L1272.81,181.43L1274.12,88.71L1275.42,109.32L1276.73,150.53L1278.03,171.13L1279.34,140.22L1280.64,129.92L1281.95,109.32L1283.25,88.71L1284.56,129.92L1285.87,171.13L1287.17,150.53L1288.48,171.13L1289.78,212.34L1292.39,140.22L1293.7,129.92L1295,202.04L1296.31,202.04L1297.61,191.73L1298.92,222.64L1300.23,222.64L1301.53,212.34L1302.84,191.73L1304.14,243.24L1305.45,232.94L1306.75,253.55L1309.36,171.13L1319.81,202.04L1321.11,222.64" style="vector-effect: none; fill: none; stroke: rgb(255, 0, 0); stroke-opacity: 1; stroke-width: 5px; opacity: 1;"/></g><g class="points"/><g class="text"/></g></g></g></g><path class="xlines-above crisp" d="M0,0" style="fill: none;"/><path class="ylines-above crisp" d="M103.5,86V624" style="fill: none; stroke-width: 1px; stroke: rgb(170, 178, 187); stroke-opacity: 1;"/><g class="overlines-above"><path class="xy2-x crisp" d="M0,0" style="fill: none;"/><path class="xy2-y crisp" d="M1446.5,86V624" style="fill: none; stroke-width: 1px; stroke: rgb(170, 178, 187); stroke-opacity: 1;"/></g><g class="xaxislayer-above"><g class="xtick"><text text-anchor="middle" x="0" y="648" transform="translate(104,0)" style="font-family: 'Open Sans', verdana, arial, sans-serif; font-size: 23px; fill: rgb(68, 68, 68); fill-opacity: 1; white-space: pre; opacity: 1;">24-01</text></g><g class="xtick"><text text-anchor="middle" x="0" y="648" transform="translate(182.32999999999998,0)" style="font-family: 'Open Sans', verdana, arial, sans-serif; font-size: 23px; fill: rgb(68, 68, 68); fill-opacity: 1; white-space: pre; opacity: 1;">24-03</text></g><g class="xtick"><text text-anchor="middle" x="0" y="648" transform="translate(261.96000000000004,0)" style="font-family: 'Open Sans', verdana, arial, sans-serif; font-size: 23px; fill: rgb(68, 68, 68); fill-opacity: 1; white-space: pre; opacity: 1;">24-05</text></g><g class="xtick"><text text-anchor="middle" x="0" y="648" transform="translate(341.59000000000003,0)" style="font-family: 'Open Sans', verdana, arial, sans-serif; font-size: 23px; fill: rgb(68, 68, 68); fill-opacity: 1; white-space: pre; opacity: 1;">24-07</text></g><g class="xtick"><text text-anchor="middle" x="0" y="648" transform="translate(422.53,0)" style="font-family: 'Open Sans', verdana, arial, sans-serif; font-size: 23px; fill: rgb(68, 68, 68); fill-opacity: 1; white-space: pre; opacity: 1;">24-09</text></g><g class="xtick"><text text-anchor="middle" x="0" y="648" transform="translate(502.16,0)" style="font-family: 'Open Sans', verdana, arial, sans-serif; font-size: 23px; fill: rgb(68, 68, 68); fill-opacity: 1; white-space: pre; opacity: 1;">24-11</text></g><g class="xtick"><text text-anchor="middle" x="0" y="648" transform="translate(581.79,0)" style="font-family: 'Open Sans', verdana, arial, sans-serif; font-size: 23px; fill: rgb(68, 68, 68); fill-opacity: 1; white-space: pre; opacity: 1;">25-01</text></g><g class="xtick"><text text-anchor="middle" x="0" y="648" transform="translate(658.82,0)" style="font-family: 'Open Sans', verdana, arial, sans-serif; font-size: 23px; fill: rgb(68, 68, 68); fill-opacity: 1; white-space: pre; opacity: 1;">25-03</text></g><g class="xtick"><text text-anchor="middle" x="0" y="648" transform="translate(738.45,0)" style="font-family: 'Open Sans', verdana, arial, sans-serif; font-size: 23px; fill: rgb(68, 68, 68); fill-opacity: 1; white-space: pre; opacity: 1;">25-05</text></g><g class="xtick"><text text-anchor="middle" x="0" y="648" transform="translate(818.08,0)" style="font-family: 'Open Sans', verdana, arial, sans-serif; font-size: 23px; fill: rgb(68, 68, 68); fill-opacity: 1; white-space: pre; opacity: 1;">25-07</text></g><g class="xtick"><text text-anchor="middle" x="0" y="648" transform="translate(899.02,0)" style="font-family: 'Open Sans', verdana, arial, sans-serif; font-size: 23px; fill: rgb(68, 68, 68); fill-opacity: 1; white-space: pre; opacity: 1;">25-09</text></g><g class="xtick"><text text-anchor="middle" x="0" y="648" transform="translate(978.65,0)" style="font-family: 'Open Sans', verdana, arial, sans-serif; font-size: 23px; fill: rgb(68, 68, 68); fill-opacity: 1; white-space: pre; opacity: 1;">25-11</text></g><g class="xtick"><text text-anchor="middle" x="0" y="648" transform="translate(1058.28,0)" style="font-family: 'Open Sans', verdana, arial, sans-serif; font-size: 23px; fill: rgb(68, 68, 68); fill-opacity: 1; white-space: pre; opacity: 1;">26-01</text></g><g class="xtick"><text text-anchor="middle" x="0" y="648" transform="translate(1135.3,0)" style="font-family: 'Open Sans', verdana, arial, sans-serif; font-size: 23px; fill: rgb(68, 68, 68); fill-opacity: 1; white-space: pre; opacity: 1;">26-03</text></g><g class="xtick"><text text-anchor="middle" x="0" y="648" transform="translate(1214.94,0)" style="font-family: 'Open Sans', verdana, arial, sans-serif; font-size: 23px; fill: rgb(68, 68, 68); fill-opacity: 1; white-space: pre; opacity: 1;">26-05</text></g><g class="xtick"><text text-anchor="middle" x="0" y="648" transform="translate(1294.57,0)" style="font-family: 'Open Sans', verdana, arial, sans-serif; font-size: 23px; fill: rgb(68, 68, 68); fill-opacity: 1; white-space: pre; opacity: 1;">26-07</text></g><g class="xtick"><text text-anchor="middle" x="0" y="648" transform="translate(1375.51,0)" style="font-family: 'Open Sans', verdana, arial, sans-serif; font-size: 23px; fill: rgb(68, 68, 68); fill-opacity: 1; white-space: pre; opacity: 1;">26-09</text></g></g><g class="yaxislayer-above"><path class="ytick ticks crisp" d="M103,0h-5" transform="translate(0,600.62)" style="stroke: rgb(170, 178, 187); stroke-opacity: 1; stroke-width: 1px;"/><path class="ytick ticks crisp" d="M103,0h-5" transform="translate(0,530.63)" style="stroke: rgb(170, 178, 187); stroke-opacity: 1; stroke-width: 1px;"/><path class="ytick ticks crisp" d="M103,0h-5" transform="translate(0,460.64)" style="stroke: rgb(170, 178, 187); stroke-opacity: 1; stroke-width: 1px;"/><path class="ytick ticks crisp" d="M103,0h-5" transform="translate(0,390.65)" style="stroke: rgb(170, 178, 187); stroke-opacity: 1; stroke-width: 1px;"/><path class="ytick ticks crisp" d="M103,0h-5" transform="translate(0,320.65999999999997)" style="stroke: rgb(170, 178, 187); stroke-opacity: 1; stroke-width: 1px;"/><path class="ytick ticks crisp" d="M103,0h-5" transform="translate(0,250.67)" style="stroke: rgb(170, 178, 187); stroke-opacity: 1; stroke-width: 1px;"/><path class="ytick ticks crisp" d="M103,0h-5" transform="translate(0,180.68)" style="stroke: rgb(170, 178, 187); stroke-opacity: 1; stroke-width: 1px;"/><path class="ytick ticks crisp" d="M103,0h-5" transform="translate(0,110.69)" style="stroke: rgb(170, 178, 187); stroke-opacity: 1; stroke-width: 1px;"/><g class="ytick"><text text-anchor="end" x="93.4" y="8.049999999999999" transform="translate(0,600.62)" style="font-family: 'Open Sans', verdana, arial, sans-serif; font-size: 23px; fill: rgb(0, 0, 255); fill-opacity: 1; white-space: pre; opacity: 1;">−2</text></g><g class="ytick"><text text-anchor="end" x="93.4" y="8.049999999999999" style="font-family: 'Open Sans', verdana, arial, sans-serif; font-size: 23px; fill: rgb(0, 0, 255); fill-opacity: 1; white-space: pre; opacity: 1;" transform="translate(0,530.63)">−1.5</text></g><g class="ytick"><text text-anchor="end" x="93.4" y="8.049999999999999" style="font-family: 'Open Sans', verdana, arial, sans-serif; font-size: 23px; fill: rgb(0, 0, 255); fill-opacity: 1; white-space: pre; opacity: 1;" transform="translate(0,460.64)">−1</text></g><g class="ytick"><text text-anchor="end" x="93.4" y="8.049999999999999" style="font-family: 'Open Sans', verdana, arial, sans-serif; font-size: 23px; fill: rgb(0, 0, 255); fill-opacity: 1; white-space: pre; opacity: 1;" transform="translate(0,390.65)">−0.5</text></g><g class="ytick"><text text-anchor="end" x="93.4" y="8.049999999999999" style="font-family: 'Open Sans', verdana, arial, sans-serif; font-size: 23px; fill: rgb(0, 0, 255); fill-opacity: 1; white-space: pre; opacity: 1;" transform="translate(0,320.65999999999997)">0</text></g><g class="ytick"><text text-anchor="end" x="93.4" y="8.049999999999999" style="font-family: 'Open Sans', verdana, arial, sans-serif; font-size: 23px; fill: rgb(0, 0, 255); fill-opacity: 1; white-space: pre; opacity: 1;" transform="translate(0,250.67)">0.5</text></g><g class="ytick"><text text-anchor="end" x="93.4" y="8.049999999999999" style="font-family: 'Open Sans', verdana, arial, sans-serif; font-size: 23px; fill: rgb(0, 0, 255); fill-opacity: 1; white-space: pre; opacity: 1;" transform="translate(0,180.68)">1</text></g><g class="ytick"><text text-anchor="end" x="93.4" y="8.049999999999999" style="font-family: 'Open Sans', verdana, arial, sans-serif; font-size: 23px; fill: rgb(0, 0, 255); fill-opacity: 1; white-space: pre; opacity: 1;" transform="translate(0,110.69)">1.5</text></g></g><g class="overaxes-above"><g class="xy2-x"/><g class="xy2-y"><path class="y2tick ticks crisp" d="M1447,0h5" transform="translate(0,607.4)" style="stroke: rgb(170, 178, 187); stroke-opacity: 1; stroke-width: 1px;"/><path class="y2tick ticks crisp" d="M1447,0h5" transform="translate(0,504.38)" style="stroke: rgb(170, 178, 187); stroke-opacity: 1; stroke-width: 1px;"/><path class="y2tick ticks crisp" d="M1447,0h5" transform="translate(0,401.36)" style="stroke: rgb(170, 178, 187); stroke-opacity: 1; stroke-width: 1px;"/><path class="y2tick ticks crisp" d="M1447,0h5" transform="translate(0,298.34000000000003)" style="stroke: rgb(170, 178, 187); stroke-opacity: 1; stroke-width: 1px;"/><path class="y2tick ticks crisp" d="M1447,0h5" transform="translate(0,195.32)" style="stroke: rgb(170, 178, 187); stroke-opacity: 1; stroke-width: 1px;"/><path class="y2tick ticks crisp" d="M1447,0h5" transform="translate(0,92.3)" style="stroke: rgb(170, 178, 187); stroke-opacity: 1; stroke-width: 1px;"/><g class="y2tick"><text text-anchor="start" x="1456.6" y="8.049999999999999" transform="translate(0,607.4)" style="font-family: 'Open Sans', verdana, arial, sans-serif; font-size: 23px; fill: rgb(255, 0, 0); fill-opacity: 1; white-space: pre; opacity: 1;">−10</text></g><g class="y2tick"><text text-anchor="start" x="1456.6" y="8.049999999999999" style="font-family: 'Open Sans', verdana, arial, sans-serif; font-size: 23px; fill: rgb(255, 0, 0); fill-opacity: 1; white-space: pre; opacity: 1;" transform="translate(0,504.38)">0</text></g><g class="y2tick"><text text-anchor="start" x="1456.6" y="8.049999999999999" style="font-family: 'Open Sans', verdana, arial, sans-serif; font-size: 23px; fill: rgb(255, 0, 0); fill-opacity: 1; white-space: pre; opacity: 1;" transform="translate(0,401.36)">10</text></g><g class="y2tick"><text text-anchor="start" x="1456.6" y="8.049999999999999" style="font-family: 'Open Sans', verdana, arial, sans-serif; font-size: 23px; fill: rgb(255, 0, 0); fill-opacity: 1; white-space: pre; opacity: 1;" transform="translate(0,298.34000000000003)">20</text></g><g class="y2tick"><text text-anchor="start" x="1456.6" y="8.049999999999999" style="font-family: 'Open Sans', verdana, arial, sans-serif; font-size: 23px; fill: rgb(255, 0, 0); fill-opacity: 1; white-space: pre; opacity: 1;" transform="translate(0,195.32)">30</text></g><g class="y2tick"><text text-anchor="start" x="1456.6" y="8.049999999999999" style="font-family: 'Open Sans', verdana, arial, sans-serif; font-size: 23px; fill: rgb(255, 0, 0); fill-opacity: 1; white-space: pre; opacity: 1;" transform="translate(0,92.3)">40</text></g></g></g></g><g class="subplot xy2"/></g><g class="polarlayer"/><g class="smithlayer"/><g class="ternarylayer"/><g class="geolayer"/><g class="funnelarealayer"/><g class="pielayer"/><g class="iciclelayer"/><g class="treemaplayer"/><g class="sunburstlayer"/><g class="glimages"/><defs id="topdefs-899d3c"><g class="clips"/><clipPath id="legend899d3c"><rect width="1192" height="47" x="0" y="0"/></clipPath></defs><g class="layer-above"><g class="imagelayer"/><g class="shapelayer"/></g><g class="infolayer"><g class="legend" pointer-events="all" transform="translate(179,28.239999999999995)"><rect class="bg" shape-rendering="crispEdges" width="1192" height="47" x="0" y="0" style="stroke: rgb(68, 68, 68); stroke-opacity: 1; fill: rgb(255, 255, 255); fill-opacity: 1; stroke-width: 0px;"/><g class="scrollbox" transform="" clip-path="url(#legend899d3c)"><g class="groups"><g class="traces" transform="translate(0,23.400000000000002)" style="opacity: 1;"><text class="legendtext" text-anchor="start" x="40" y="10.14" style="font-family: 'Open Sans', verdana, arial, sans-serif; font-size: 26px; fill: rgb(68, 68, 68); fill-opacity: 1; white-space: pre;">期货结算价(连续):WTI原油:NYMEX:STL固定季节1年:季节项 · 领先30天</text><g class="layers" style="opacity: 1;"><g class="legendfill"/><g class="legendlines"><path class="js-line" d="M5,0h30" style="fill: none; stroke: rgb(0, 0, 255); stroke-opacity: 1; stroke-width: 5px;"/></g><g class="legendsymbols"><g class="legendpoints"/></g></g><rect class="legendtoggle" x="0" y="-18.400000000000002" width="909.984375" height="36.800000000000004" style="fill: rgb(0, 0, 0); fill-opacity: 0;"/></g><g class="traces" transform="translate(912.484375,23.400000000000002)" style="opacity: 1;"><text class="legendtext" text-anchor="start" x="40" y="10.14" style="font-family: 'Open Sans', verdana, arial, sans-serif; font-size: 26px; fill: rgb(68, 68, 68); fill-opacity: 1; white-space: pre;">美国:纽约:最高气温</text><g class="layers" style="opacity: 1;"><g class="legendfill"/><g class="legendlines"><path class="js-line" d="M5,0h30" style="fill: none; stroke: rgb(255, 0, 0); stroke-opacity: 1; stroke-width: 5px;"/></g><g class="legendsymbols"><g class="legendpoints"/></g></g><rect class="legendtoggle" x="0" y="-18.400000000000002" width="276.828125" height="36.800000000000004" style="fill: rgb(0, 0, 0); fill-opacity: 0;"/></g></g></g><rect class="scrollbar" rx="20" ry="3" width="0" height="0" x="0" y="0" style="fill: rgb(128, 139, 164); fill-opacity: 1;"/></g><g class="g-gtitle"/><g class="g-xtitle"/><g class="g-ytitle"><text class="ytitle" transform="rotate(-90,22.112890625000006,355)" x="22.112890625000006" y="355" text-anchor="middle" style="opacity: 1; font-family: 'Open Sans', verdana, arial, sans-serif; font-size: 21px; fill: rgb(0, 0, 255); fill-opacity: 1; white-space: pre;">美元/桶</text></g><g class="g-y2title"><text class="y2title" transform="rotate(-90,1526.877734375,355)" x="1526.877734375" y="355" text-anchor="middle" style="opacity: 1; font-family: 'Open Sans', verdana, arial, sans-serif; font-size: 21px; fill: rgb(255, 0, 0); fill-opacity: 1; white-space: pre;">摄氏度</text></g></g></svg>