<svg class="main-svg" xmlns="http://www.w3.org/2000/svg" xmlns:xlink="http://www.w3.org/1999/xlink" width="1550" height="700" viewBox="0 0 1550 700" style=""><rect x="0" y="0" width="1550" height="700" style="fill: rgb(255, 255, 255); fill-opacity: 1;"/><defs id="defs-80ea6b"><g class="clips"><clipPath id="clip80ea6bxyplot" class="plotclip"><rect width="1358" height="470"/></clipPath><clipPath class="axesclip" id="clip80ea6bx"><rect x="104" y="0" width="1358" height="700"/></clipPath><clipPath class="axesclip" id="clip80ea6by"><rect x="0" y="144" width="1550" height="470"/></clipPath><clipPath class="axesclip" id="clip80ea6bxy"><rect x="104" y="144" width="1358" height="470"/></clipPath></g><g class="gradients"/><g class="patterns"/></defs><g class="bglayer"/><g class="layer-below"><g class="imagelayer"/><g class="shapelayer"/></g><g class="cartesianlayer"><g class="subplot xy"><g class="layer-subplot"><g class="shapelayer"/><g class="imagelayer"/></g><g class="minor-gridlayer"><g class="x"/><g class="y"/></g><g class="gridlayer"><g class="x"/><g class="y"><path class="ygrid crisp" transform="translate(0,549.9100000000001)" d="M104,0h1358" style="stroke: rgb(232, 235, 239); stroke-opacity: 1; stroke-width: 1px;"/><path class="ygrid crisp" transform="translate(0,459.61)" d="M104,0h1358" style="stroke: rgb(232, 235, 239); stroke-opacity: 1; stroke-width: 1px;"/><path class="ygrid crisp" transform="translate(0,369.31)" d="M104,0h1358" style="stroke: rgb(232, 235, 239); stroke-opacity: 1; stroke-width: 1px;"/><path class="ygrid crisp" transform="translate(0,279.01)" d="M104,0h1358" style="stroke: rgb(232, 235, 239); stroke-opacity: 1; stroke-width: 1px;"/><path class="ygrid crisp" transform="translate(0,188.7)" d="M104,0h1358" style="stroke: rgb(232, 235, 239); stroke-opacity: 1; stroke-width: 1px;"/></g></g><g class="zerolinelayer"/><g class="layer-between"><g class="shapelayer"/><g class="imagelayer"/></g><path class="xlines-below"/><path class="ylines-below"/><g class="overlines-below"/><g class="xaxislayer-below"/><g class="yaxislayer-below"/><g class="overaxes-below"/><g class="overplot"><g class="xy" transform="translate(104,144)" clip-path="url(#clip80ea6bxyplot)"><g class="scatterlayer mlayer"><g class="trace scatter tracee0c423" style="stroke-miterlimit: 2; opacity: 1;"><g class="fills"/><g class="errorbars"/><g class="lines"><path class="js-line" d="M169.75,120.87L282.92,144.85L396.08,235.37L509.25,268.7L622.42,261.65L735.58,283.88L848.75,295.37" style="vector-effect: none; fill: none; stroke: rgb(255, 0, 0); stroke-opacity: 1; stroke-width: 5px; opacity: 1;"/></g><g class="points"/><g class="text"/></g><g class="trace scatter trace6da097" style="stroke-miterlimit: 2; opacity: 1;"><g class="fills"/><g class="errorbars"/><g class="lines"><path class="js-line" d="M169.75,78.31L282.92,109.66L396.08,201.94L509.25,234.18L622.42,229.32L735.58,263.28L848.75,279.63L961.92,262.39L1075.08,289.24L1188.25,291.8L1301.42,278.01" style="vector-effect: none; fill: none; stroke: rgb(0, 0, 255); stroke-opacity: 1; stroke-width: 4px; opacity: 1;"/></g><g class="points"/><g class="text"/></g><g class="trace scatter traceb9f872" style="stroke-miterlimit: 2; opacity: 1;"><g class="fills"/><g class="errorbars"/><g class="lines"><path class="js-line" d="M169.75,109.34L282.92,134.62L396.08,235.28L509.25,261.58L622.42,256.47L735.58,279.07L848.75,287.27L961.92,279.36L1075.08,302.02L1188.25,306.99L1301.42,299.12" style="vector-effect: none; fill: none; stroke: rgb(0, 128, 0); stroke-opacity: 1; stroke-width: 4px; opacity: 1;"/></g><g class="points"/><g class="text"/></g><g class="trace scatter trace41110b" style="stroke-miterlimit: 2; opacity: 1;"><g class="fills"/><g class="errorbars"/><g class="lines"><path class="js-line" d="M169.75,23.5L282.92,84.14L396.08,188.01L509.25,227.84L622.42,225.18L735.58,260.71L848.75,273.02L961.92,266.41L1075.08,289.15L1188.25,294.24L1301.42,287.74" style="vector-effect: none; fill: none; stroke: rgb(148, 103, 189); stroke-opacity: 1; stroke-width: 3.2px; opacity: 1;"/></g><g class="points"/><g class="text"/></g><g class="trace scatter tracecdbcf4" style="stroke-miterlimit: 2; opacity: 1;"><g class="fills"/><g class="errorbars"/><g class="lines"><path class="js-line" d="M169.75,126.15L282.92,133.33L396.08,207.39L509.25,234.34L622.42,231.04L735.58,264.94L848.75,277.1L961.92,267.77L1075.08,289.36L1188.25,278.16L1301.42,262.06" style="vector-effect: none; fill: none; stroke: rgb(23, 190, 207); stroke-opacity: 1; stroke-width: 3.2px; opacity: 1;"/></g><g class="points"/><g class="text"/></g><g class="trace scatter trace55d122" style="stroke-miterlimit: 2; opacity: 1;"><g class="fills"/><g class="errorbars"/><g class="lines"><path class="js-line" d="M169.75,190.45L282.92,229.12L396.08,339.94L509.25,366.91L622.42,344.76L735.58,385.71L848.75,392.07L961.92,375.53L1075.08,400.05L1188.25,400.69L1301.42,385.63" style="vector-effect: none; fill: none; stroke: rgb(227, 119, 194); stroke-opacity: 1; stroke-width: 3.2px; opacity: 1;"/></g><g class="points"/><g class="text"/></g><g class="trace scatter trace596660" style="stroke-miterlimit: 2; opacity: 1;"><g class="fills"/><g class="errorbars"/><g class="lines"><path class="js-line" d="M169.75,68.2L282.92,103.68L396.08,245.47L509.25,289.69L622.42,280.88L735.58,333.2L848.75,351.88L961.92,342.64L1075.08,370.59L1188.25,376.1L1301.42,366.4" style="vector-effect: none; fill: none; stroke: rgb(188, 189, 34); stroke-opacity: 1; stroke-width: 3.2px; opacity: 1;"/></g><g class="points"/><g class="text"/></g><g class="trace scatter trace5c7d5b" style="stroke-miterlimit: 2; opacity: 1;"><g class="fills"/><g class="errorbars"/><g class="lines"><path class="js-line" d="M169.75,114.03L282.92,209.22L396.08,296.55L509.25,330.67L622.42,335.14L735.58,357.54L848.75,370.38L961.92,362.54L1075.08,381.26L1188.25,389.06L1301.42,381.01" style="vector-effect: none; fill: none; stroke: rgb(140, 86, 75); stroke-opacity: 1; stroke-width: 3.2px; opacity: 1;"/></g><g class="points"/><g class="text"/></g><g class="trace scatter trace78b0d0" style="stroke-miterlimit: 2; opacity: 1;"><g class="fills"/><g class="errorbars"/><g class="lines"><path class="js-line" d="M169.75,216.61L282.92,279.85L396.08,380.44L509.25,397.66L622.42,389.36L735.58,411.64L848.75,417.51L961.92,406.73L1075.08,419.73L1188.25,417.21L1301.42,407.81" style="vector-effect: none; fill: none; stroke: rgb(4, 255, 0); stroke-opacity: 1; stroke-width: 3.2px; opacity: 1;"/></g><g class="points"/><g class="text"/></g><g class="trace scatter traceffd4ac" style="stroke-miterlimit: 2; opacity: 1;"><g class="fills"/><g class="errorbars"/><g class="lines"><path class="js-line" d="M169.75,236.17L282.92,294.91L396.08,393.18L509.25,411.19L622.42,401.46L735.58,431.46L848.75,435.99L961.92,427.36L1075.08,443.94L1188.25,446.5L1301.42,437.1" style="vector-effect: none; fill: none; stroke: rgb(102, 103, 34); stroke-opacity: 1; stroke-width: 3.2px; opacity: 1;"/></g><g class="points"/><g class="text"/></g><g class="trace scatter trace4a4067" style="stroke-miterlimit: 2; opacity: 1;"><g class="fills"/><g class="errorbars"/><g class="lines"><path class="js-line" d="M169.75,210.63L282.92,276.87L396.08,367.27L509.25,393.44L622.42,388.85L735.58,408.17L848.75,413.5L961.92,406.67L1075.08,421.67L1188.25,425.34L1301.42,421.81" style="vector-effect: none; fill: none; stroke: rgb(100, 0, 128); stroke-opacity: 1; stroke-width: 3.2px; opacity: 1;"/></g><g class="points"/><g class="text"/></g></g></g></g><path class="xlines-above crisp" d="M0,0" style="fill: none;"/><path class="ylines-above crisp" d="M103.5,144V614" style="fill: none; stroke-width: 1px; stroke: rgb(170, 178, 187); stroke-opacity: 1;"/><g class="overlines-above"/><g class="xaxislayer-above"><g class="xtick"><text text-anchor="end" x="0" y="636" transform="translate(160.57999999999998,0) rotate(-45,0,625.5)" style="font-family: 'Open Sans', verdana, arial, sans-serif; font-size: 21px; fill: rgb(68, 68, 68); fill-opacity: 1; white-space: pre; opacity: 1;">1月</text></g><g class="xtick"><text text-anchor="end" x="0" y="636" style="font-family: 'Open Sans', verdana, arial, sans-serif; font-size: 21px; fill: rgb(68, 68, 68); fill-opacity: 1; white-space: pre; opacity: 1;" transform="translate(273.75,0) rotate(-45,0,625.5)">2月</text></g><g class="xtick"><text text-anchor="end" x="0" y="636" style="font-family: 'Open Sans', verdana, arial, sans-serif; font-size: 21px; fill: rgb(68, 68, 68); fill-opacity: 1; white-space: pre; opacity: 1;" transform="translate(386.92,0) rotate(-45,0,625.5)">3月</text></g><g class="xtick"><text text-anchor="end" x="0" y="636" style="font-family: 'Open Sans', verdana, arial, sans-serif; font-size: 21px; fill: rgb(68, 68, 68); fill-opacity: 1; white-space: pre; opacity: 1;" transform="translate(500.08,0) rotate(-45,0,625.5)">4月</text></g><g class="xtick"><text text-anchor="end" x="0" y="636" style="font-family: 'Open Sans', verdana, arial, sans-serif; font-size: 21px; fill: rgb(68, 68, 68); fill-opacity: 1; white-space: pre; opacity: 1;" transform="translate(613.25,0) rotate(-45,0,625.5)">5月</text></g><g class="xtick"><text text-anchor="end" x="0" y="636" style="font-family: 'Open Sans', verdana, arial, sans-serif; font-size: 21px; fill: rgb(68, 68, 68); fill-opacity: 1; white-space: pre; opacity: 1;" transform="translate(726.42,0) rotate(-45,0,625.5)">6月</text></g><g class="xtick"><text text-anchor="end" x="0" y="636" style="font-family: 'Open Sans', verdana, arial, sans-serif; font-size: 21px; fill: rgb(68, 68, 68); fill-opacity: 1; white-space: pre; opacity: 1;" transform="translate(839.58,0) rotate(-45,0,625.5)">7月</text></g><g class="xtick"><text text-anchor="end" x="0" y="636" style="font-family: 'Open Sans', verdana, arial, sans-serif; font-size: 21px; fill: rgb(68, 68, 68); fill-opacity: 1; white-space: pre; opacity: 1;" transform="translate(952.75,0) rotate(-45,0,625.5)">8月</text></g><g class="xtick"><text text-anchor="end" x="0" y="636" style="font-family: 'Open Sans', verdana, arial, sans-serif; font-size: 21px; fill: rgb(68, 68, 68); fill-opacity: 1; white-space: pre; opacity: 1;" transform="translate(1065.92,0) rotate(-45,0,625.5)">9月</text></g><g class="xtick"><text text-anchor="end" x="0" y="636" style="font-family: 'Open Sans', verdana, arial, sans-serif; font-size: 21px; fill: rgb(68, 68, 68); fill-opacity: 1; white-space: pre; opacity: 1;" transform="translate(1179.08,0) rotate(-45,0,625.5)">10月</text></g><g class="xtick"><text text-anchor="end" x="0" y="636" style="font-family: 'Open Sans', verdana, arial, sans-serif; font-size: 21px; fill: rgb(68, 68, 68); fill-opacity: 1; white-space: pre; opacity: 1;" transform="translate(1292.25,0) rotate(-45,0,625.5)">11月</text></g><g class="xtick"><text text-anchor="end" x="0" y="636" style="font-family: 'Open Sans', verdana, arial, sans-serif; font-size: 21px; fill: rgb(68, 68, 68); fill-opacity: 1; white-space: pre; opacity: 1;" transform="translate(1405.42,0) rotate(-45,0,625.5)">12月</text></g></g><g class="yaxislayer-above"><path class="ytick ticks crisp" d="M103,0h-5" transform="translate(0,549.9100000000001)" style="stroke: rgb(170, 178, 187); stroke-opacity: 1; stroke-width: 1px;"/><path class="ytick ticks crisp" d="M103,0h-5" transform="translate(0,459.61)" style="stroke: rgb(170, 178, 187); stroke-opacity: 1; stroke-width: 1px;"/><path class="ytick ticks crisp" d="M103,0h-5" transform="translate(0,369.31)" style="stroke: rgb(170, 178, 187); stroke-opacity: 1; stroke-width: 1px;"/><path class="ytick ticks crisp" d="M103,0h-5" transform="translate(0,279.01)" style="stroke: rgb(170, 178, 187); stroke-opacity: 1; stroke-width: 1px;"/><path class="ytick ticks crisp" d="M103,0h-5" transform="translate(0,188.7)" style="stroke: rgb(170, 178, 187); stroke-opacity: 1; stroke-width: 1px;"/><g class="ytick"><text text-anchor="end" x="94.4" y="6.3" transform="translate(0,549.9100000000001)" style="font-family: 'Open Sans', verdana, arial, sans-serif; font-size: 18px; fill: rgb(0, 0, 255); fill-opacity: 1; white-space: pre; opacity: 1;">0</text></g><g class="ytick"><text text-anchor="end" x="94.4" y="6.3" style="font-family: 'Open Sans', verdana, arial, sans-serif; font-size: 18px; fill: rgb(0, 0, 255); fill-opacity: 1; white-space: pre; opacity: 1;" transform="translate(0,459.61)">20</text></g><g class="ytick"><text text-anchor="end" x="94.4" y="6.3" style="font-family: 'Open Sans', verdana, arial, sans-serif; font-size: 18px; fill: rgb(0, 0, 255); fill-opacity: 1; white-space: pre; opacity: 1;" transform="translate(0,369.31)">40</text></g><g class="ytick"><text text-anchor="end" x="94.4" y="6.3" style="font-family: 'Open Sans', verdana, arial, sans-serif; font-size: 18px; fill: rgb(0, 0, 255); fill-opacity: 1; white-space: pre; opacity: 1;" transform="translate(0,279.01)">60</text></g><g class="ytick"><text text-anchor="end" x="94.4" y="6.3" style="font-family: 'Open Sans', verdana, arial, sans-serif; font-size: 18px; fill: rgb(0, 0, 255); fill-opacity: 1; white-space: pre; opacity: 1;" transform="translate(0,188.7)">80</text></g></g><g class="overaxes-above"/></g></g><g class="polarlayer"/><g class="smithlayer"/><g class="ternarylayer"/><g class="geolayer"/><g class="funnelarealayer"/><g class="pielayer"/><g class="iciclelayer"/><g class="treemaplayer"/><g class="sunburstlayer"/><g class="glimages"/><defs id="topdefs-80ea6b"><g class="clips"/><clipPath id="legend80ea6b"><rect width="1111" height="42" x="0" y="0"/></clipPath></defs><g class="layer-above"><g class="imagelayer"/><g class="shapelayer"/></g><g class="infolayer"><g class="legend" pointer-events="all" transform="translate(227.5,69.99999999999996)"><rect class="bg" shape-rendering="crispEdges" width="1111" height="42" x="0" y="0" style="stroke: rgb(68, 68, 68); stroke-opacity: 1; fill: rgb(255, 255, 255); fill-opacity: 1; stroke-width: 0px;"/><g class="scrollbox" transform="" clip-path="url(#legend80ea6b)"><g class="groups"><g class="traces" transform="translate(0,20.8)" style="opacity: 1;"><text class="legendtext" text-anchor="start" x="40" y="8.58" style="font-family: 'Open Sans', verdana, arial, sans-serif; font-size: 22px; fill: rgb(68, 68, 68); fill-opacity: 1; white-space: pre;">2026</text><g class="layers" style="opacity: 1;"><g class="legendfill"/><g class="legendlines"><path class="js-line" d="M5,0h30" style="fill: none; stroke: rgb(255, 0, 0); stroke-opacity: 1; stroke-width: 5px;"/></g><g class="legendsymbols"><g class="legendpoints"/></g></g><rect class="legendtoggle" x="0" y="-15.8" width="98.453125" height="31.6" style="fill: rgb(0, 0, 0); fill-opacity: 0;"/></g><g class="traces" transform="translate(100.953125,20.8)" style="opacity: 1;"><text class="legendtext" text-anchor="start" x="40" y="8.58" style="font-family: 'Open Sans', verdana, arial, sans-serif; font-size: 22px; fill: rgb(68, 68, 68); fill-opacity: 1; white-space: pre;">2025</text><g class="layers" style="opacity: 1;"><g class="legendfill"/><g class="legendlines"><path class="js-line" d="M5,0h30" style="fill: none; stroke: rgb(0, 0, 255); stroke-opacity: 1; stroke-width: 4px;"/></g><g class="legendsymbols"><g class="legendpoints"/></g></g><rect class="legendtoggle" x="0" y="-15.8" width="98.453125" height="31.6" style="fill: rgb(0, 0, 0); fill-opacity: 0;"/></g><g class="traces" transform="translate(201.90625,20.8)" style="opacity: 1;"><text class="legendtext" text-anchor="start" x="40" y="8.58" style="font-family: 'Open Sans', verdana, arial, sans-serif; font-size: 22px; fill: rgb(68, 68, 68); fill-opacity: 1; white-space: pre;">2024</text><g class="layers" style="opacity: 1;"><g class="legendfill"/><g class="legendlines"><path class="js-line" d="M5,0h30" style="fill: none; stroke: rgb(0, 128, 0); stroke-opacity: 1; stroke-width: 4px;"/></g><g class="legendsymbols"><g class="legendpoints"/></g></g><rect class="legendtoggle" x="0" y="-15.8" width="98.453125" height="31.6" style="fill: rgb(0, 0, 0); fill-opacity: 0;"/></g><g class="traces" transform="translate(302.859375,20.8)" style="opacity: 1;"><text class="legendtext" text-anchor="start" x="40" y="8.58" style="font-family: 'Open Sans', verdana, arial, sans-serif; font-size: 22px; fill: rgb(68, 68, 68); fill-opacity: 1; white-space: pre;">2023</text><g class="layers" style="opacity: 1;"><g class="legendfill"/><g class="legendlines"><path class="js-line" d="M5,0h30" style="fill: none; stroke: rgb(148, 103, 189); stroke-opacity: 1; stroke-width: 3.2px;"/></g><g class="legendsymbols"><g class="legendpoints"/></g></g><rect class="legendtoggle" x="0" y="-15.8" width="98.453125" height="31.6" style="fill: rgb(0, 0, 0); fill-opacity: 0;"/></g><g class="traces" transform="translate(403.8125,20.8)" style="opacity: 1;"><text class="legendtext" text-anchor="start" x="40" y="8.58" style="font-family: 'Open Sans', verdana, arial, sans-serif; font-size: 22px; fill: rgb(68, 68, 68); fill-opacity: 1; white-space: pre;">2022</text><g class="layers" style="opacity: 1;"><g class="legendfill"/><g class="legendlines"><path class="js-line" d="M5,0h30" style="fill: none; stroke: rgb(23, 190, 207); stroke-opacity: 1; stroke-width: 3.2px;"/></g><g class="legendsymbols"><g class="legendpoints"/></g></g><rect class="legendtoggle" x="0" y="-15.8" width="98.453125" height="31.6" style="fill: rgb(0, 0, 0); fill-opacity: 0;"/></g><g class="traces" transform="translate(504.765625,20.8)" style="opacity: 1;"><text class="legendtext" text-anchor="start" x="40" y="8.58" style="font-family: 'Open Sans', verdana, arial, sans-serif; font-size: 22px; fill: rgb(68, 68, 68); fill-opacity: 1; white-space: pre;">2021</text><g class="layers" style="opacity: 1;"><g class="legendfill"/><g class="legendlines"><path class="js-line" d="M5,0h30" style="fill: none; stroke: rgb(227, 119, 194); stroke-opacity: 1; stroke-width: 3.2px;"/></g><g class="legendsymbols"><g class="legendpoints"/></g></g><rect class="legendtoggle" x="0" y="-15.8" width="98.453125" height="31.6" style="fill: rgb(0, 0, 0); fill-opacity: 0;"/></g><g class="traces" transform="translate(605.71875,20.8)" style="opacity: 1;"><text class="legendtext" text-anchor="start" x="40" y="8.58" style="font-family: 'Open Sans', verdana, arial, sans-serif; font-size: 22px; fill: rgb(68, 68, 68); fill-opacity: 1; white-space: pre;">2020</text><g class="layers" style="opacity: 1;"><g class="legendfill"/><g class="legendlines"><path class="js-line" d="M5,0h30" style="fill: none; stroke: rgb(188, 189, 34); stroke-opacity: 1; stroke-width: 3.2px;"/></g><g class="legendsymbols"><g class="legendpoints"/></g></g><rect class="legendtoggle" x="0" y="-15.8" width="98.453125" height="31.6" style="fill: rgb(0, 0, 0); fill-opacity: 0;"/></g><g class="traces" transform="translate(706.671875,20.8)" style="opacity: 1;"><text class="legendtext" text-anchor="start" x="40" y="8.58" style="font-family: 'Open Sans', verdana, arial, sans-serif; font-size: 22px; fill: rgb(68, 68, 68); fill-opacity: 1; white-space: pre;">2019</text><g class="layers" style="opacity: 1;"><g class="legendfill"/><g class="legendlines"><path class="js-line" d="M5,0h30" style="fill: none; stroke: rgb(140, 86, 75); stroke-opacity: 1; stroke-width: 3.2px;"/></g><g class="legendsymbols"><g class="legendpoints"/></g></g><rect class="legendtoggle" x="0" y="-15.8" width="98.453125" height="31.6" style="fill: rgb(0, 0, 0); fill-opacity: 0;"/></g><g class="traces" transform="translate(807.625,20.8)" style="opacity: 1;"><text class="legendtext" text-anchor="start" x="40" y="8.58" style="font-family: 'Open Sans', verdana, arial, sans-serif; font-size: 22px; fill: rgb(68, 68, 68); fill-opacity: 1; white-space: pre;">2018</text><g class="layers" style="opacity: 1;"><g class="legendfill"/><g class="legendlines"><path class="js-line" d="M5,0h30" style="fill: none; stroke: rgb(4, 255, 0); stroke-opacity: 1; stroke-width: 3.2px;"/></g><g class="legendsymbols"><g class="legendpoints"/></g></g><rect class="legendtoggle" x="0" y="-15.8" width="98.453125" height="31.6" style="fill: rgb(0, 0, 0); fill-opacity: 0;"/></g><g class="traces" transform="translate(908.578125,20.8)" style="opacity: 1;"><text class="legendtext" text-anchor="start" x="40" y="8.58" style="font-family: 'Open Sans', verdana, arial, sans-serif; font-size: 22px; fill: rgb(68, 68, 68); fill-opacity: 1; white-space: pre;">2017</text><g class="layers" style="opacity: 1;"><g class="legendfill"/><g class="legendlines"><path class="js-line" d="M5,0h30" style="fill: none; stroke: rgb(102, 103, 34); stroke-opacity: 1; stroke-width: 3.2px;"/></g><g class="legendsymbols"><g class="legendpoints"/></g></g><rect class="legendtoggle" x="0" y="-15.8" width="98.453125" height="31.6" style="fill: rgb(0, 0, 0); fill-opacity: 0;"/></g><g class="traces" transform="translate(1009.53125,20.8)" style="opacity: 1;"><text class="legendtext" text-anchor="start" x="40" y="8.58" style="font-family: 'Open Sans', verdana, arial, sans-serif; font-size: 22px; fill: rgb(68, 68, 68); fill-opacity: 1; white-space: pre;">2016</text><g class="layers" style="opacity: 1;"><g class="legendfill"/><g class="legendlines"><path class="js-line" d="M5,0h30" style="fill: none; stroke: rgb(100, 0, 128); stroke-opacity: 1; stroke-width: 3.2px;"/></g><g class="legendsymbols"><g class="legendpoints"/></g></g><rect class="legendtoggle" x="0" y="-15.8" width="98.453125" height="31.6" style="fill: rgb(0, 0, 0); fill-opacity: 0;"/></g></g></g><rect class="scrollbar" rx="20" ry="3" width="0" height="0" x="0" y="0" style="fill: rgb(128, 139, 164); fill-opacity: 1;"/></g><g class="g-gtitle"/><g class="g-xtitle"/><g class="g-ytitle"><text class="ytitle" transform="rotate(-90,57.709765625,379)" x="57.709765625" y="379" text-anchor="middle" style="opacity: 1; font-family: 'Open Sans', verdana, arial, sans-serif; font-size: 18px; fill: rgb(0, 0, 255); fill-opacity: 1; white-space: pre;">%</text></g><g class="annotation" data-index="0" style="opacity: 1;"><g class="annotation-text-g" transform="rotate(0,783,44)"><g class="cursor-pointer" transform="translate(659,29)"><rect class="bg" x="0.5" y="0.5" width="248" height="30" style="stroke-width: 1px; stroke: rgb(0, 0, 0); stroke-opacity: 0; fill: rgb(0, 0, 0); fill-opacity: 0;"/><text class="annotation-text" text-anchor="middle" x="124.578125" y="24" style="font-family: 'Open Sans', verdana, arial, sans-serif; font-size: 22px; fill: rgb(23, 33, 43); fill-opacity: 1; white-space: pre;">缩表力度（人民币近似）</text></g></g></g><g class="annotation" data-index="1" style="opacity: 1;"><g class="annotation-text-g" transform="rotate(0,1373.5,127.5)"><g class="cursor-pointer" transform="translate(1285,116)"><rect class="bg" x="0.5" y="0.5" width="176" height="22" style="stroke-width: 1px; stroke: rgb(0, 0, 0); stroke-opacity: 0; fill: rgb(0, 0, 0); fill-opacity: 0;"/><text class="annotation-text" text-anchor="middle" x="88.578125" y="18" style="font-family: 'Open Sans', verdana, arial, sans-serif; font-size: 16px; fill: rgb(105, 117, 134); fill-opacity: 1; white-space: pre;">统计样本：2016–2025</text></g></g></g></g></svg>